<svg xmlns="http://www.w3.org/2000/svg" viewBox="0 0 1307.05 83.61"><defs><style>.cls-1{fill:#fff;}</style></defs><g id="레이어_2" data-name="레이어 2"><g id="레이어_1-2" data-name="레이어 1"><path class="cls-1" d="M.27,60l4.5-.36c3.15-.27,4.32-.81,4.32-1.35V6.3c0-.63-.54-.81-5.22-1.17L.36,4.86.09,4.32H24.48c12.69,0,19.62,4.77,19.62,13.32,0,9.36-8.37,15.57-20.61,15.57a70.87,70.87,0,0,1-8.55-.72v26.1c0,.63.54.9,5.22,1.17l4.41.27.27.54H0Zm37.62-41.4C37.89,10,33.75,4.86,22.05,5l-7.11.09V31.32a31.31,31.31,0,0,0,8.55,1.17C32.94,32.49,37.89,27.63,37.89,18.63Z"/><path class="cls-1" d="M44.37,42.3c0-11.34,7.2-21,18.45-21,9,0,13.86,6,13.86,12.15a11.29,11.29,0,0,1-.18,1.35l-26.19-.09a42.12,42.12,0,0,0-.45,4.95c0,10.8,6.39,18.45,14.4,18.45,5.85,0,9.27-2.16,12.69-7.38l.63.27C73.8,57.42,69.3,61.65,62.1,61.65,52.29,61.65,44.37,52.92,44.37,42.3Zm26.46-8.55c0-6.3-2.88-11.52-8.55-11.52-5,0-10,4.86-11.79,11.61Z"/><path class="cls-1" d="M80.37,60,82,59.94c2.79-.18,3.78-.18,3.78-1.26V32c0-5.58-.63-6.84-3.69-7.11L80,24.66l.09-.36,10.8-2.79-.36,15.75h.09c2.43-9.54,6.39-15.93,12.06-15.93,3.15,0,4.77,2.07,4.77,4.14a3.82,3.82,0,0,1-3.69,4c-2,0-3.78-1.71-4-5.22-4.32.9-6.3,4.86-9,14.94V58.86c0,.72-.09,1,3.87,1.08l3,.09.27.54H80.1Z"/><path class="cls-1" d="M108.27,60l1.53-.09c2.79-.18,3.78-.18,3.78-1.26V10.17c0-5.58-.45-6.66-3.69-7.11l-2-.18.09-.36L118.62,0V58.86c0,.72.36.9,4.5,1.08l1.26.09.27.54H108.09Z"/><path class="cls-1" d="M126.81,42.3c0-11.34,7.2-21,18.45-21,9,0,13.86,6,13.86,12.15a11.29,11.29,0,0,1-.18,1.35l-26.19-.09a42.12,42.12,0,0,0-.45,4.95c0,10.8,6.39,18.45,14.4,18.45,5.85,0,9.27-2.16,12.69-7.38L160,51c-3.78,6.39-8.28,10.62-15.48,10.62C134.73,61.65,126.81,52.92,126.81,42.3Zm26.46-8.55c0-6.3-2.88-11.52-8.55-11.52-4.95,0-10,4.86-11.79,11.61Z"/><path class="cls-1" d="M162.81,60l1.62-.09c2.79-.18,3.78-.18,3.78-1.26V32c0-5.58-.63-6.84-3.69-7.11l-2.07-.27.09-.36,10.8-2.79-.27,8.1.18.27c3.33-3,9-8.55,15.39-8.55a8.62,8.62,0,0,1,6.48,2.43c1.89,2,3,4.5,3,8.46V58.77c0,.54,0,.81,4.41,1.17l1.35.09.27.54H187.47l.27-.54,1.62-.09c3.15-.18,3.78-.54,3.78-1.26V33.3c0-5.31-2.88-8.19-7.92-8.19-4.41,0-8.46,2.34-12,5.67V58.86c0,.72.54.81,4.59,1.08L179,60l.36.54H162.54Z"/><path class="cls-1" d="M206.37,69c2.34-1.26,6.3-3.87,6.3-8.91,0-3.51-2.88-5.22-5.94-3.51-1.26-2.34.27-5.31,3.69-5.31,3.24,0,5.76,2.61,5.76,6.48,0,4.77-4.23,9.72-9.45,11.7Z"/><path class="cls-1" d="M256.58,55.62v-.18c-3.68,3.15-7.64,5.85-11.6,5.85-5.4,0-8.73-3.69-8.73-8.1,0-5.94,4.86-9.9,21-14.13l.19-5.31c.44-9.09-4.68-10.71-8.55-10.71s-8.19,2.79-8.19,4.05c0,.63,2.16,1.62,2.16,4a3.33,3.33,0,0,1-3.42,3.24A3.12,3.12,0,0,1,236,30.87c0-4.14,9.72-9.54,16.2-9.54s10.52,2.52,10.07,11.88L261.35,55c-.18,2.88,1,3.42,2.79,3.42,1.44,0,3-1.26,4.32-2.7l.45.27c-1.71,1.89-3.87,5.4-7.29,5.4C259.1,61.38,256.67,59,256.58,55.62Zm.19-1.26.44-14.4c-14,3.51-15.74,7.47-15.74,11.88,0,4.14,2.25,6.57,6.39,6.57C251.28,58.41,254.52,56.34,256.77,54.36Z"/><path class="cls-1" d="M285.75,60l1.62-.09c2.78-.18,3.78-.18,3.78-1.26V32c0-5.58-.63-6.84-3.69-7.11l-2.07-.27.09-.36,10.79-2.79-.27,8.1.18.27c3.33-3,9-8.55,15.39-8.55a8.62,8.62,0,0,1,6.48,2.43c1.89,2,3,4.5,3,8.46V58.77c0,.54,0,.81,4.41,1.17l1.35.09.27.54H310.4l.27-.54,1.62-.09c3.15-.18,3.78-.54,3.78-1.26V33.3c0-5.31-2.88-8.19-7.92-8.19-4.41,0-8.46,2.34-12,5.67V58.86c0,.72.54.81,4.59,1.08l1.17.09.36.54H285.48Z"/><path class="cls-1" d="M329,42.3c0-11.34,7.2-21,18.45-21,9,0,13.86,6,13.86,12.15a11.29,11.29,0,0,1-.18,1.35L335,34.74a42.12,42.12,0,0,0-.45,4.95c0,10.8,6.39,18.45,14.4,18.45,5.85,0,9.27-2.16,12.69-7.38l.63.27c-3.78,6.39-8.28,10.62-15.48,10.62C337,61.65,329,52.92,329,42.3Zm26.46-8.55c0-6.3-2.88-11.52-8.55-11.52-4.95,0-10,4.86-11.79,11.61Z"/><path class="cls-1" d="M368.46,29.25c-1.8-5.31-2.16-5.85-5-6l-1.62-.09-.09-.54h16.91l-.35.54-1.35.09c-3.6.18-4.23,1.26-2.88,4.68l9.54,25.56,8.9-21L391,28.71c-1.89-4.86-2.43-5.22-5.31-5.49l-1.61-.09-.37-.54h16.92l-.18.54-1.53.09c-3.51.18-3.78,1.26-2.52,4.68l10.8,25.83L414,33.57c2.79-8.37,2.7-9.81-3.42-10.35l-1.08-.09-.27-.54h14.4l-.27.54-.36.09c-4.14.45-5.13,1.71-8.37,11.43l-9,26.82H405l-12-27.9-11.87,27.9h-.63Z"/><path class="cls-1" d="M447,29.25c-1.8-5.31-2.16-5.85-5-6l-1.62-.09-.09-.54h16.92l-.36.54-1.35.09c-3.6.18-4.23,1.26-2.88,4.68l9.54,25.56,8.91-21-1.44-3.78c-1.89-4.86-2.43-5.22-5.31-5.49l-1.62-.09-.36-.54h16.92l-.18.54-1.53.09c-3.51.18-3.78,1.26-2.52,4.68l10.8,25.83,6.75-20.16c2.79-8.37,2.7-9.81-3.42-10.35l-1.08-.09-.27-.54h14.4l-.27.54-.36.09c-4.14.45-5.13,1.71-8.37,11.43l-9,26.82h-.63l-12-27.9-11.88,27.9h-.63Z"/><path class="cls-1" d="M522.8,55.62v-.18c-3.69,3.15-7.65,5.85-11.61,5.85-5.4,0-8.73-3.69-8.73-8.1,0-5.94,4.86-9.9,21-14.13l.18-5.31c.45-9.09-4.68-10.71-8.55-10.71s-8.19,2.79-8.19,4.05c0,.63,2.16,1.62,2.16,4a3.33,3.33,0,0,1-3.42,3.24,3.12,3.12,0,0,1-3.42-3.42c0-4.14,9.72-9.54,16.2-9.54s10.53,2.52,10.08,11.88L527.57,55c-.18,2.88,1,3.42,2.79,3.42,1.44,0,3-1.26,4.32-2.7l.45.27c-1.71,1.89-3.87,5.4-7.29,5.4C525.32,61.38,522.89,59,522.8,55.62Zm.18-1.26.45-14.4c-14,3.51-15.75,7.47-15.75,11.88,0,4.14,2.25,6.57,6.39,6.57C517.49,58.41,520.73,56.34,523,54.36Z"/><path class="cls-1" d="M532.07,80a3.63,3.63,0,0,1,3.6-3.69c2,0,3.78,1.71,4,4.41,4.32-.81,5.94-4.68,9.09-14.22l1.8-5.49v-.18L537.2,28.89c-1.89-4.95-2.25-5.49-5-5.67l-1.71-.09-.27-.54H547l-.09.54-1.53.09c-3.42.18-3.78,1.35-2.52,4.77l10.44,25.65,7.74-20.34c3-8.46,2.52-9.54-3.51-10.08l-1.26-.09-.27-.54H571l-.27.54-1,.09c-4.14.27-4.59,1.71-8.19,11.16L551.24,61.2l-2.43,7.65c-3.15,10.17-6.3,14.76-11.88,14.76C534.05,83.61,532.07,82,532.07,80Z"/><path class="cls-1" d="M587.78,41.76c0-11.25,8.73-20.43,19.62-20.43a19.52,19.52,0,0,1,19.44,19.89c0,11.52-8.73,20.43-19.44,20.43A19.56,19.56,0,0,1,587.78,41.76Zm33,.45c0-6.84-1.53-13-5-16.56a11.62,11.62,0,0,0-8.55-3.6c-7.56,0-13.59,8-13.59,18.36,0,7.38,2,14,5.58,17.55a11.79,11.79,0,0,0,8.28,3.15C614.87,61.11,620.81,52.83,620.81,42.21Z"/><path class="cls-1" d="M630.71,60l1.53-.09c2.7-.18,3.78-.09,3.78-1.17V25.47l-6.12-.09.81-2.79h5.22l.18-2.07C637.28,6.84,644.84,1,651.5,1c3.06,0,4.86,1.62,4.86,3.69a3.18,3.18,0,0,1-3.24,3,5,5,0,0,1-4.59-4.14l-.18-.63-1.17-.18c-4.77,1.35-6.12,8-6.12,16v3.87H650l-.9,2.88h-8V58.86c0,.72-.09,1,3.87,1.08l3,.09.27.54H630.44Z"/><path class="cls-1" d="M669.59,60l1.62-.09c2.79-.18,3.78-.18,3.78-1.26V32c0-5.58-.63-6.84-3.69-7.11l-2.07-.27.09-.36,10.8-2.79-.45,7.83h.09c3-3,8-8,14-8a9.26,9.26,0,0,1,6.93,2.7,9.71,9.71,0,0,1,2.43,5.4h.09c3-3.15,7.92-8.1,14-8.1a8.94,8.94,0,0,1,6.93,2.79c1.8,1.8,2.79,4.77,2.79,8.1V58.77c0,.54,0,.81,4.5,1.17l1.17.09.27.54H716.21l.27-.54,1.62-.09c3.15-.18,3.69-.54,3.69-1.26V33.3c0-5.22-2.52-8.19-7.83-8.19-4.14,0-8.64,2.25-10.44,5.13l-.09.09V58.77c0,.54,0,.81,4.5,1.17l1.26.09.27.54H692.9l.27-.54,1.62-.09c3.06-.18,3.6-.54,3.6-1.26V33.3c0-5.22-2.61-8.19-7.74-8.19-4.23,0-7.74,2.07-10.62,4.95v28.8c0,.72.54.81,4.59,1.08l1.17.09.36.54H669.32Z"/><path class="cls-1" d="M734.84,42.3c0-11.34,7.2-21,18.45-21,9,0,13.86,6,13.86,12.15a11.29,11.29,0,0,1-.18,1.35l-26.19-.09a42.12,42.12,0,0,0-.45,4.95c0,10.8,6.39,18.45,14.4,18.45,5.85,0,9.27-2.16,12.69-7.38l.63.27c-3.78,6.39-8.28,10.62-15.48,10.62C742.76,61.65,734.84,52.92,734.84,42.3Zm26.46-8.55c0-6.3-2.88-11.52-8.55-11.52-5,0-10,4.86-11.79,11.61Z"/><path class="cls-1" d="M771.11,42.3c0-11.34,7.2-21,18.45-21,9,0,13.86,6,13.86,12.15a11.29,11.29,0,0,1-.18,1.35l-26.19-.09a42.12,42.12,0,0,0-.45,4.95c0,10.8,6.39,18.45,14.4,18.45,5.85,0,9.27-2.16,12.69-7.38l.63.27c-3.78,6.39-8.28,10.62-15.48,10.62C779,61.65,771.11,52.92,771.11,42.3Zm26.46-8.55c0-6.3-2.88-11.52-8.55-11.52-4.95,0-10,4.86-11.79,11.61Z"/><path class="cls-1" d="M812.15,53.73l.63-28.44-6.93-.09.9-2.7h6.12l.18-7.74h5l-.09,7.83h12.15l-.9,2.7H817.91l-.63,27.45c-.18,4.59,2.61,6.12,5.31,6.12,3.51,0,5.49-2.43,7.74-4.23l.54.18c-3.6,3.6-6.39,6.84-11.16,6.84C816.92,61.65,812.06,60.84,812.15,53.73Z"/><path class="cls-1" d="M832.58,60l1.62-.09c2.79-.18,3.78-.18,3.78-1.26V31.86c0-5.4-.63-6.66-3.69-6.93l-2.07-.27.09-.36L843,21.51V58.86c0,.72.54.81,4.5,1.08l1.26.09.27.54H832.31Zm3.24-51a3.94,3.94,0,0,1,3.87-4,3.72,3.72,0,0,1,3.69,4,3.75,3.75,0,0,1-3.69,3.78A3.85,3.85,0,0,1,835.82,9Z"/><path class="cls-1" d="M850.94,60l1.62-.09c2.79-.18,3.78-.18,3.78-1.26V32c0-5.58-.63-6.84-3.69-7.11l-2.07-.27.09-.36,10.8-2.79-.27,8.1.18.27c3.33-3,9-8.55,15.39-8.55a8.62,8.62,0,0,1,6.48,2.43c1.89,2,3,4.5,3,8.46V58.77c0,.54,0,.81,4.41,1.17L892,60l.27.54H875.6l.27-.54,1.62-.09c3.15-.18,3.78-.54,3.78-1.26V33.3c0-5.31-2.88-8.19-7.92-8.19-4.41,0-8.46,2.34-12,5.67V58.86c0,.72.54.81,4.59,1.08l1.17.09.36.54H850.67Z"/><path class="cls-1" d="M893.24,73c0-5.13,6.21-9.63,10.8-11.34v-.09c-6-.45-9.9-2.25-9.9-5.85,0-4.59,5.58-8.37,10.62-9.18v-.09A12.18,12.18,0,0,1,896.21,35c0-7.83,6.57-13.59,14.58-13.59A15.21,15.21,0,0,1,920,24.48l10.17-1.8-.54,3.15-8.37-.36-.09.18a12.2,12.2,0,0,1,4.14,8.64c0,7.65-6.66,13.23-14.94,13.23a22.48,22.48,0,0,1-4.68-.63c-3.69.72-6.57,3.06-6.57,5.58,0,3,2.07,4.14,7.65,4.14,2.34,0,6.93-.27,10.17-.27,8.1,0,13.23,3.69,13.23,9.45,0,9.72-9.36,17.19-22.32,17.19C899.18,83,893.24,79.2,893.24,73Zm33.84-3.33c0-5-3.51-8.1-11.34-8.37a84,84,0,0,0-10.62.54C902.06,63,897,67.05,897,72c0,5.31,5.58,9.45,14.13,9.45C919.07,81.45,927.08,76.41,927.08,69.66ZM920,35c0-7.83-3.42-12.87-9.27-12.87-5,0-9.18,5-9.18,12,0,7.56,4,12.69,9.09,12.69S920,42.12,920,35Z"/><path class="cls-1" d="M949.4,80a3.63,3.63,0,0,1,3.6-3.69c2,0,3.78,1.71,4,4.41,4.32-.81,5.94-4.68,9.09-14.22l1.8-5.49v-.18L954.53,28.89c-1.89-4.95-2.25-5.49-5-5.67l-1.71-.09-.27-.54h16.83l-.09.54-1.53.09c-3.42.18-3.78,1.35-2.52,4.77l10.44,25.65,7.74-20.34c3-8.46,2.52-9.54-3.51-10.08l-1.26-.09-.27-.54h14.94l-.27.54-1,.09c-4.14.27-4.59,1.71-8.19,11.16L968.57,61.2l-2.43,7.65C963,79,959.84,83.61,954.26,83.61,951.38,83.61,949.4,82,949.4,80Z"/><path class="cls-1" d="M986.21,41.76c0-11.25,8.73-20.43,19.62-20.43a19.52,19.52,0,0,1,19.44,19.89c0,11.52-8.73,20.43-19.44,20.43A19.56,19.56,0,0,1,986.21,41.76Zm33,.45c0-6.84-1.53-13-5-16.56a11.62,11.62,0,0,0-8.55-3.6c-7.56,0-13.59,8-13.59,18.36,0,7.38,2,14,5.58,17.55a11.79,11.79,0,0,0,8.28,3.15C1013.3,61.11,1019.24,52.83,1019.24,42.21Z"/><path class="cls-1" d="M1057.75,53.55h-.08c-3.42,2.88-8.82,8.1-15.21,8.1a9.5,9.5,0,0,1-7-2.43c-2-2-2.7-4.86-2.7-8.28V24.3c0-.54,0-.72-4.59-1.08l-1.26-.09-.27-.54h11.07l.09,27.18c0,5.31,2.79,8.28,8,8.28,4.5,0,8.19-2.25,11.61-5.31V27.9c0-3.78-.82-4.41-4.5-4.68l-1.26-.09-.27-.54h11.16V55.71c0,2,.35,3,3.14,3.24l2.62.09-.09.54-10.8,2.34Z"/><path class="cls-1" d="M1069.19,60l1.62-.09c2.79-.18,3.78-.18,3.78-1.26V32c0-5.58-.63-6.84-3.69-7.11l-2.07-.27.09-.36,10.8-2.79-.36,15.75h.09c2.43-9.54,6.38-15.93,12-15.93,3.16,0,4.78,2.07,4.78,4.14a3.82,3.82,0,0,1-3.7,4c-2,0-3.77-1.71-4-5.22-4.31.9-6.29,4.86-9,14.94V58.86c0,.72-.09,1,3.87,1.08l3,.09.28.54h-17.82Z"/><path class="cls-1" d="M1115.26,42.3c0-11.79,8.46-21,19.8-21,7.2,0,12.42,3.6,12.42,8.28a4,4,0,0,1-3.6,4,3.24,3.24,0,0,1-3.51-3.24c0-2.79,1.8-3.42,1.8-4.14,0-1.17-3.15-4.14-7.2-4.14-7.38,0-14.22,7.29-14.22,17.55,0,10.8,6.39,18.54,14.4,18.54,5.85,0,9.27-2.16,12.51-7.38l.81.27c-3.69,6.39-8.37,10.62-15.57,10.62C1123.18,61.65,1115.26,52.92,1115.26,42.3Z"/><path class="cls-1" d="M1151.17,41.76c0-11.25,8.73-20.43,19.62-20.43a19.52,19.52,0,0,1,19.44,19.89c0,11.52-8.73,20.43-19.44,20.43A19.56,19.56,0,0,1,1151.17,41.76Zm33,.45c0-6.84-1.53-13-5-16.56a11.62,11.62,0,0,0-8.55-3.6c-7.56,0-13.59,8-13.59,18.36,0,7.38,2,14,5.58,17.55a11.79,11.79,0,0,0,8.28,3.15C1178.26,61.11,1184.2,52.83,1184.2,42.21Z"/><path class="cls-1" d="M1194,60l1.62-.09c2.7-.18,3.78-.18,3.78-1.26V25.47l-6.12-.09.81-2.79h5.22l.18-1.17c1.26-13.77,8.64-19.62,17.1-19.62,5,0,6.57,2,6.57,4.32a3.1,3.1,0,0,1-3.15,3c-2.16,0-4.32-2.61-3.87-5.22l-2.7-1c-6.75,1.26-9,7.11-9,16.56v3.15h17.28V20.88C1223,7,1230.55,1,1237.21,1c3.06,0,4.86,1.62,4.86,3.69a3.25,3.25,0,0,1-3.24,3,5,5,0,0,1-4.59-4.14l-.09-.63-1.35-.18c-4.68,2.07-6.12,8-6.12,16v3.87h9.09l-.9,2.88h-8.19V58.86c0,.72,0,1,4,1.08l2.88.09.36.54h-17.73l.27-.54,1.62-.09c2.7-.18,3.69-.18,3.69-1.26V25.38h-17.28V58.86c0,.72-.27,1,3.87,1.08l3,.09.27.54h-17.82Z"/><path class="cls-1" d="M1237.57,42.3c0-11.34,7.2-21,18.45-21,9,0,13.86,6,13.86,12.15a11.29,11.29,0,0,1-.18,1.35l-26.19-.09a42.12,42.12,0,0,0-.45,4.95c0,10.8,6.39,18.45,14.4,18.45,5.85,0,9.27-2.16,12.69-7.38l.63.27c-3.78,6.39-8.28,10.62-15.48,10.62C1245.49,61.65,1237.57,52.92,1237.57,42.3ZM1264,33.75c0-6.3-2.88-11.52-8.55-11.52-5,0-10,4.86-11.79,11.61Z"/><path class="cls-1" d="M1273.84,42.3c0-11.34,7.2-21,18.45-21,9,0,13.86,6,13.86,12.15a11.29,11.29,0,0,1-.18,1.35l-26.19-.09a42.12,42.12,0,0,0-.45,4.95c0,10.8,6.39,18.45,14.4,18.45,5.85,0,9.27-2.16,12.69-7.38l.63.27c-3.78,6.39-8.28,10.62-15.48,10.62C1281.76,61.65,1273.84,52.92,1273.84,42.3Zm26.46-8.55c0-6.3-2.88-11.52-8.55-11.52-5,0-10,4.86-11.79,11.61Z"/></g></g></svg>