<svg xmlns="http://www.w3.org/2000/svg" viewBox="0 0 846.46 212.14"><defs><style>.cls-1{fill:#fff;}</style></defs><g id="레이어_2" data-name="레이어 2"><g id="레이어_1-2" data-name="레이어 1"><path class="cls-1" d="M63.84,80.28l4.8-.48c4.2-.36,5.76-1.08,5.76-1.8V8.64c0-.84-.72-1.08-7-1.56L64,6.72,63.6,6h53.63L120,26.28l-.72.12-.6-1.44c-4-11.52-7.56-18-20.16-18H82.2V41.28H93.72c9.23-.36,10-2,12-9.24l.6-1.32.6.12-2.28,22.68-.6-.12-.12-1.32c-.6-8.28-.84-9.12-11-9.36L82.2,42.48v35.4c0,.84.72,1.44,7,1.8L95,80l.37,1H63.48Z"/><path class="cls-1" d="M115.44,55.92c0-15,11.64-27.24,26.15-27.24s25.92,11.64,25.92,26.52c0,15.36-11.64,27.24-25.92,27.24C127,82.44,115.44,70.8,115.44,55.92Zm44,.6c0-9.12-2-17.4-6.72-22.08a15.49,15.49,0,0,0-11.4-4.8c-10.07,0-18.11,10.68-18.11,24.48,0,9.84,2.64,18.6,7.44,23.4a15.72,15.72,0,0,0,11,4.2C151.55,81.72,159.47,70.68,159.47,56.52Z"/><path class="cls-1" d="M169.31,80.28l2.16-.12c3.72-.24,5-.24,5-1.68V43c0-7.44-.84-9.12-4.92-9.48l-2.76-.36.12-.48,14.4-3.72-.48,21H183c3.24-12.72,8.52-21.24,16.08-21.24,4.2,0,6.36,2.76,6.36,5.52a5.09,5.09,0,0,1-4.92,5.28c-2.64,0-5-2.28-5.28-7-5.76,1.2-8.4,6.48-12,19.92V78.72c0,1-.12,1.32,5.16,1.44l4,.12.36.72H169Z"/><path class="cls-1" d="M225.47,106.92a4.84,4.84,0,0,1,4.8-4.92c2.64,0,5,2.28,5.28,5.88,5.76-1.08,7.92-6.24,12.12-19l2.4-7.32v-.24l-17.76-42.6c-2.52-6.6-3-7.32-6.72-7.56l-2.28-.12-.36-.72h22.44l-.12.72-2,.12c-4.56.24-5,1.8-3.36,6.36l13.92,34.2,10.32-27.12c4-11.28,3.36-12.72-4.68-13.44l-1.68-.12-.36-.72h19.92l-.36.72-1.32.12c-5.52.36-6.12,2.28-10.92,14.88L251,81.84,247.79,92c-4.2,13.56-8.4,19.68-15.84,19.68C228.11,111.72,225.47,109.56,225.47,106.92Z"/><path class="cls-1" d="M272.15,55.92c0-15,11.64-27.24,26.16-27.24s25.92,11.64,25.92,26.52c0,15.36-11.64,27.24-25.92,27.24C283.67,82.44,272.15,70.8,272.15,55.92Zm44,.6c0-9.12-2-17.4-6.72-22.08a15.49,15.49,0,0,0-11.4-4.8C288,29.64,280,40.32,280,54.12c0,9.84,2.64,18.6,7.44,23.4a15.73,15.73,0,0,0,11,4.2C308.27,81.72,316.19,70.68,316.19,56.52Z"/><path class="cls-1" d="M365.15,71.64H365c-4.56,3.84-11.76,10.8-20.28,10.8-4.32,0-7-1.08-9.36-3.24-2.64-2.64-3.6-6.48-3.6-11V32.64c0-.72,0-1-6.12-1.44L324,31.08l-.36-.72h14.76l.12,36.24c0,7.08,3.72,11,10.68,11,6,0,10.92-3,15.48-7.08V37.44c0-5-1.08-5.88-6-6.24L357,31.08l-.36-.72h14.88V74.52c0,2.64.48,4,4.2,4.32l3.48.12-.12.72-14.4,3.12Z"/><path class="cls-1" d="M378,80.28l2.16-.12c3.72-.24,5-.24,5-1.68V43c0-7.44-.84-9.12-4.92-9.48l-2.76-.36.12-.48L392,28.92l-.48,21h.12c3.24-12.72,8.52-21.24,16.08-21.24,4.2,0,6.36,2.76,6.36,5.52a5.09,5.09,0,0,1-4.92,5.28c-2.64,0-5-2.28-5.28-7-5.76,1.2-8.4,6.48-12,19.92V78.72c0,1-.12,1.32,5.16,1.44l4,.12.36.72H377.63Z"/><path class="cls-1" d="M437.87,12.6c0-6.24-.72-7.92-4.92-8.28l-2.76-.24.12-.72L444.47,0V39.48l.24.36c4.8-5.4,10.92-10.56,18.84-10.56,11.88,0,21.36,10,21.36,24.72,0,16.2-12.48,28.44-24.84,28.44a31.44,31.44,0,0,1-16.92-4.92H443l-4.44,5.64h-.72Zm39.36,44.28c0-13.2-7.08-23.4-17.64-23.4-6.6,0-11,3.72-15.12,7.92V71.64a18.63,18.63,0,0,0,15.84,9.6C470.51,81.24,477.23,71.28,477.23,56.88Z"/><path class="cls-1" d="M487.07,55.92c0-15,11.64-27.24,26.15-27.24s25.92,11.64,25.92,26.52c0,15.36-11.64,27.24-25.92,27.24C498.59,82.44,487.07,70.8,487.07,55.92Zm44,.6c0-9.12-2-17.4-6.72-22.08a15.49,15.49,0,0,0-11.4-4.8c-10.07,0-18.11,10.68-18.11,24.48,0,9.84,2.64,18.6,7.44,23.4a15.72,15.72,0,0,0,11,4.2C523.18,81.72,531.1,70.68,531.1,56.52Z"/><path class="cls-1" d="M541.3,55.92c0-15,11.64-27.24,26.16-27.24s25.92,11.64,25.92,26.52c0,15.36-11.64,27.24-25.92,27.24C552.82,82.44,541.3,70.8,541.3,55.92Zm44,.6c0-9.12-2-17.4-6.72-22.08a15.49,15.49,0,0,0-11.4-4.8c-10.08,0-18.12,10.68-18.12,24.48,0,9.84,2.64,18.6,7.44,23.4a15.73,15.73,0,0,0,11,4.2C577.42,81.72,585.34,70.68,585.34,56.52Z"/><path class="cls-1" d="M594.22,80.28l2-.12c3.6-.24,4.92-.24,4.92-1.68V12.84c0-6.48-.6-8.16-4.8-8.52l-2.76-.24.12-.48L607.9.24v57.6l12.12-12c4.2-4.32,8.28-9.12,8.28-11.4,0-1.92-2-2.88-6.24-3.24l-1.56-.12-.24-.72h22.32l-.36.72-2.64.24c-5.52.48-8.16,4.56-17.76,14.16A22.74,22.74,0,0,0,619.54,48L635,73.2c3.36,5.52,4.08,6.48,9.24,7l1.32.12.36.72H631.18l-.6-1.44L614.5,52.8l-6.6,6.48V78.72c0,1,.72,1.08,5.88,1.44l1.68.12.36.72h-22Z"/><path class="cls-1" d="M644.5,80.28l2.16-.12c3.72-.24,5-.24,5-1.68V42.72c0-7.2-.84-8.88-4.92-9.24L644,33.12l.12-.48,14.28-3.72v49.8c0,1,.72,1.08,6,1.44l1.68.12.36.72H644.14Zm4.32-68A5.25,5.25,0,0,1,654,7c3.72,0,4.92,3.24,4.92,5.28a5,5,0,0,1-4.92,5A5.14,5.14,0,0,1,648.82,12.24Z"/><path class="cls-1" d="M666.58,80.28l2.16-.12c3.72-.24,5-.24,5-1.68V43c0-7.44-.84-9.12-4.92-9.48l-2.76-.36.12-.48,14.4-3.72-.36,10.8.24.36c4.44-4,12-11.4,20.52-11.4,3.6,0,6.6,1.08,8.64,3.24,2.52,2.64,4,6,4,11.28V78.6c0,.72,0,1.08,5.88,1.56l1.8.12.36.72h-22.2l.36-.72,2.16-.12c4.2-.24,5-.72,5-1.68V44.64c0-7.08-3.84-10.92-10.56-10.92-5.88,0-11.28,3.12-16,7.56V78.72c0,1,.72,1.08,6.12,1.44l1.56.12.48.72H666.22Z"/><path class="cls-1" d="M720.58,97.56c0-6.84,8.28-12.84,14.4-15.12v-.12c-8-.6-13.2-3-13.2-7.8,0-6.12,7.44-11.16,14.16-12.24v-.12a16.24,16.24,0,0,1-11.4-15.24c0-10.44,8.76-18.12,19.44-18.12a20.27,20.27,0,0,1,12.24,4.08l13.56-2.4-.72,4.2L757.9,34.2l-.12.24c3,2.76,5.52,7,5.52,11.52,0,10.2-8.88,17.64-19.92,17.64a30,30,0,0,1-6.24-.84c-4.92,1-8.76,4.08-8.76,7.44,0,4,2.76,5.52,10.2,5.52,3.12,0,9.24-.36,13.56-.36,10.8,0,17.64,4.92,17.64,12.6,0,13-12.48,22.92-29.76,22.92C728.5,110.88,720.58,105.84,720.58,97.56Zm45.12-4.44c0-6.72-4.68-10.8-15.12-11.16a111.94,111.94,0,0,0-14.16.72c-4.08,1.56-10.8,7-10.8,13.56,0,7.08,7.44,12.6,18.84,12.6C755,108.84,765.7,102.12,765.7,93.12Zm-9.48-46.2c0-10.44-4.56-17.16-12.36-17.16-6.6,0-12.24,6.72-12.24,16,0,10.08,5.28,16.92,12.12,16.92S756.22,56.4,756.22,46.92Z"/><path class="cls-1" d="M772.9,92.28c3.12-1.68,8.4-5.16,8.4-11.88,0-4.68-3.84-7-7.92-4.68-1.68-3.12.36-7.08,4.92-7.08,4.32,0,7.68,3.48,7.68,8.64,0,6.36-5.64,13-12.6,15.6Z"/><path class="cls-1" d="M1.08,209.26l2-.12c3.6-.24,5-.12,5-1.56v-44.4L0,163.06l1.08-3.72H8l.24-2.76c1.56-18.23,11.64-26,20.52-26,4.08,0,6.48,2.16,6.48,4.92A4.24,4.24,0,0,1,31,139.42c-3,0-5.52-2.51-6.12-5.51l-.24-.84L23,132.83c-6.36,1.8-8.16,10.67-8.16,21.35v5.16H26.76l-1.2,3.84H14.88V207.7c0,1-.12,1.32,5.16,1.44l4,.12.36.72H.72Z"/><path class="cls-1" d="M26.88,184.9c0-15,11.64-27.23,26.16-27.23S79,169.3,79,184.18c0,15.36-11.64,27.24-25.92,27.24C38.4,211.42,26.88,199.78,26.88,184.9Zm44,.6c0-9.12-2-17.4-6.72-22.08a15.49,15.49,0,0,0-11.4-4.8c-10.08,0-18.12,10.68-18.12,24.48,0,9.84,2.64,18.6,7.44,23.4a15.73,15.73,0,0,0,11,4.2C63,210.7,70.92,199.66,70.92,185.5Z"/><path class="cls-1" d="M80.28,209.26l2-.12c3.72-.24,5-.24,5-1.68V142.79c0-7.44-.6-8.88-4.92-9.48l-2.64-.24.12-.48,14.16-3.36V207.7c0,1,.48,1.2,6,1.44l1.68.12.36.72H80Z"/><path class="cls-1" d="M103,209.26l2-.12c3.72-.24,5-.24,5-1.68V142.79c0-7.44-.6-8.88-4.92-9.48l-2.64-.24.12-.48,14.16-3.36V207.7c0,1,.48,1.2,6,1.44l1.68.12.36.72H102.72Z"/><path class="cls-1" d="M125.28,184.9c0-15,11.64-27.23,26.16-27.23s25.91,11.63,25.91,26.51c0,15.36-11.64,27.24-25.91,27.24C136.8,211.42,125.28,199.78,125.28,184.9Zm44,.6c0-9.12-2-17.4-6.72-22.08a15.49,15.49,0,0,0-11.4-4.8c-10.07,0-18.11,10.68-18.11,24.48,0,9.84,2.64,18.6,7.44,23.4a15.71,15.71,0,0,0,11,4.2C161.39,210.7,169.31,199.66,169.31,185.5Z"/><path class="cls-1" d="M182.51,168.22c-2.4-7.08-2.88-7.8-6.72-8l-2.16-.12-.12-.72h22.56l-.48.72-1.8.12c-4.8.24-5.64,1.68-3.84,6.24l12.72,34.08,11.88-28-1.92-5c-2.52-6.48-3.24-7-7.08-7.32l-2.16-.12-.48-.72h22.56l-.24.72-2,.12c-4.68.24-5,1.68-3.36,6.24l14.4,34.44,9-26.88c3.72-11.16,3.6-13.08-4.56-13.8l-1.44-.12-.36-.72h19.2l-.36.72-.48.12c-5.52.6-6.84,2.28-11.16,15.24l-12,35.76h-.84l-16-37.2-15.84,37.2h-.84Z"/><path class="cls-1" d="M283.43,200.86l.84-37.92-9.24-.12,1.2-3.6h8.16l.24-10.31h6.6l-.12,10.43h16.2l-1.2,3.6h-15l-.84,36.6c-.24,6.12,3.48,8.16,7.08,8.16,4.68,0,7.32-3.24,10.32-5.64l.72.24c-4.8,4.8-8.52,9.12-14.88,9.12C289.79,211.42,283.31,210.34,283.43,200.86Z"/><path class="cls-1" d="M307.31,209.26l2-.12c3.6-.24,4.92-.24,4.92-1.68V141.83c0-6.48-.6-7.92-4.8-8.52l-2.76-.24.12-.48L321,129.23v39.71c4.68-4,12-11.27,20.64-11.27a11.67,11.67,0,0,1,8.52,3.23c2.52,2.64,3.84,6,3.84,11v35.64c0,.72,0,1.32,6,1.56l1.8.12.36.72H339.83l.36-.72,2.16-.12c4.44-.24,5-.72,5-1.68V173.62c0-7.08-3.72-10.92-10.32-10.92-6,0-11.4,3.12-16.08,7.56V207.7c0,1,.72,1.08,6.12,1.44l1.68.12.36.72H307Z"/><path class="cls-1" d="M362.39,185.62c0-15.12,9.6-28,24.6-28,12,0,18.48,8,18.48,16.19a15.05,15.05,0,0,1-.24,1.8l-34.92-.12a56.16,56.16,0,0,0-.6,6.6c0,14.4,8.52,24.6,19.2,24.6,7.8,0,12.36-2.88,16.92-9.84l.84.36c-5,8.52-11,14.16-20.64,14.16C373,211.42,362.39,199.78,362.39,185.62Zm35.28-11.4c0-8.4-3.84-15.36-11.4-15.36-6.6,0-13.32,6.48-15.72,15.48Z"/><path class="cls-1" d="M426.71,209.26l2-.12c3.72-.24,5-.24,5-1.68V142.79c0-7.44-.6-8.88-4.92-9.48l-2.64-.24.12-.48,14.16-3.36V207.7c0,1,.48,1.2,6,1.44l1.68.12.36.72H426.47Z"/><path class="cls-1" d="M448.67,209.26l2.16-.12c3.72-.24,5-.24,5-1.68V171.7c0-7.2-.84-8.88-4.92-9.24l-2.76-.36.12-.48,14.28-3.72v49.8c0,1,.72,1.08,6,1.44l1.68.12.36.72H448.31Zm4.32-68a5.25,5.25,0,0,1,5.16-5.28c3.72,0,4.92,3.24,4.92,5.28a5,5,0,0,1-4.92,5A5.13,5.13,0,0,1,453,141.23Z"/><path class="cls-1" d="M470.75,209.26l2.16-.12c3.72-.24,5-.24,5-1.68V171.94c0-7.44-.84-9.12-4.92-9.48l-2.76-.36.12-.48,14.4-3.72-.36,10.8.24.36c4.44-4,12-11.39,20.52-11.39,3.6,0,6.6,1.07,8.64,3.23,2.52,2.64,4,6,4,11.28v35.4c0,.72,0,1.08,5.88,1.56l1.8.12.36.72h-22.2l.36-.72,2.16-.12c4.2-.24,5-.72,5-1.68V173.62c0-7.08-3.84-10.92-10.56-10.92-5.88,0-11.28,3.12-16,7.56V207.7c0,1,.72,1.08,6.12,1.44l1.56.12.48.72H470.39Z"/><path class="cls-1" d="M524.75,209.26l2-.12c3.6-.24,4.92-.24,4.92-1.68V141.83c0-6.48-.6-8.16-4.8-8.52l-2.76-.24.12-.48,14.16-3.36v57.59l12.12-12c4.2-4.32,8.28-9.12,8.28-11.4,0-1.92-2-2.88-6.24-3.24l-1.56-.12-.24-.72h22.32l-.36.72-2.64.24c-5.52.48-8.16,4.56-17.76,14.16a22.74,22.74,0,0,0-2.28,2.52l15.48,25.2c3.36,5.52,4.08,6.48,9.24,7l1.31.12.37.72H561.71l-.6-1.44L545,181.78l-6.6,6.48V207.7c0,1,.72,1.08,5.88,1.44l1.68.12.36.72h-22Z"/><path class="cls-1" d="M599,141.58c0-6.23-.72-7.91-4.92-8.27l-2.76-.24.12-.72L605.63,129v39.47l.24.36c4.8-5.4,10.92-10.56,18.83-10.56,11.88,0,21.36,10,21.36,24.72,0,16.2-12.48,28.44-24.83,28.44a31.44,31.44,0,0,1-16.92-4.92h-.12l-4.44,5.64H599Zm39.35,44.28c0-13.2-7.07-23.4-17.63-23.4-6.6,0-11,3.72-15.12,7.92v30.24a18.63,18.63,0,0,0,15.84,9.6C631.66,210.22,638.38,200.26,638.38,185.86Z"/><path class="cls-1" d="M648.23,185.62c0-15.12,9.59-28,24.59-28,12,0,18.48,8,18.48,16.19a15.05,15.05,0,0,1-.24,1.8l-34.92-.12a56.16,56.16,0,0,0-.6,6.6c0,14.4,8.52,24.6,19.2,24.6,7.8,0,12.36-2.88,16.92-9.84l.84.36c-5,8.52-11,14.16-20.64,14.16C658.78,211.42,648.23,199.78,648.23,185.62Zm35.27-11.4c0-8.4-3.84-15.36-11.4-15.36-6.6,0-13.32,6.48-15.72,15.48Z"/><path class="cls-1" d="M693.35,209.26l2-.12c3.73-.24,5-.24,5-1.68V142.79c0-7.44-.59-8.88-4.92-9.48l-2.63-.24.12-.48,14.15-3.36V207.7c0,1,.48,1.2,6,1.44l1.68.12.36.72H693.11Z"/><path class="cls-1" d="M715.66,184.9c0-15,11.64-27.23,26.16-27.23s25.92,11.63,25.92,26.51c0,15.36-11.64,27.24-25.92,27.24C727.18,211.42,715.66,199.78,715.66,184.9Zm44,.6c0-9.12-2-17.4-6.72-22.08a15.49,15.49,0,0,0-11.4-4.8c-10.08,0-18.12,10.68-18.12,24.48,0,9.84,2.64,18.6,7.44,23.4a15.73,15.73,0,0,0,11,4.2C751.78,210.7,759.7,199.66,759.7,185.5Z"/><path class="cls-1" d="M772.9,168.22c-2.4-7.08-2.88-7.8-6.72-8l-2.16-.12-.12-.72h22.56l-.48.72-1.8.12c-4.8.24-5.64,1.68-3.84,6.24l12.72,34.08,11.88-28-1.92-5c-2.52-6.48-3.24-7-7.08-7.32l-2.16-.12-.48-.72h22.56l-.24.72-2,.12c-4.68.24-5,1.68-3.36,6.24l14.4,34.44,9-26.88c3.72-11.16,3.6-13.08-4.56-13.8l-1.44-.12-.36-.72h19.2l-.36.72-.48.12c-5.52.6-6.84,2.28-11.16,15.24l-12,35.76h-.84l-16-37.2-15.84,37.2H789Z"/></g></g></svg>