<svg xmlns="http://www.w3.org/2000/svg" viewBox="0 0 312.79 312.88"><defs><style>.cls-1{fill:#fff;}</style></defs><g id="레이어_2" data-name="레이어 2"><g id="레이어_1-2" data-name="레이어 1"><path class="cls-1" d="M32.44,312.88c-3.65-1.15-7.49-1.9-10.91-3.53C8.49,303.13,1,292.56.36,278.24-.34,261.47.2,244.66.2,227.59H24.68V231q0,21.38,0,42.76c0,9.93,4.69,14.63,14.56,14.63H273.76c9.87,0,14.61-4.74,14.61-14.59V39.22c0-9.88-4.73-14.63-14.58-14.63H39.27c-9.89,0-14.58,4.7-14.59,14.61q0,21.22,0,42.45v3.8H.12V82.1q0-21.69,0-43.38C.14,15.93,15.9.12,38.62.12c78.48,0,157,.17,235.43-.12,21.68-.08,36.37,15.51,38.29,31.08,0,.27.3.52.45.77V281.11a7.4,7.4,0,0,0-.56,1.38c-2.93,14.67-11.7,24.13-25.75,28.87-1.79.61-3.63,1-5.45,1.52Z"/><path class="cls-1" d="M75.91,231.73l-75-75.08,75.2-75.21L92.8,98.14,46.72,144.19H222.25v24.32H47.49q23.31,23.3,45.83,45.83Z"/></g></g></svg>