<svg xmlns="http://www.w3.org/2000/svg" viewBox="0 0 408.8 408.83"><defs><style>.cls-1{fill:#fff;}</style></defs><g id="레이어_2" data-name="레이어 2"><g id="레이어_1-2" data-name="레이어 1"><path class="cls-1" d="M376.86,408.83c-.46-34.31-9.3-66.21-28.64-94.67-28.28-41.61-67.09-67.5-117.05-75.45-43.69-7-84.48,1.69-121.24,26.23-40.42,27-65.91,64.52-74.8,112.62-1.9,10.27-2.17,20.84-3.19,31.27H0C3.07,314.45,51,251.72,136.14,215c-34-25.84-51.84-60.21-49.63-103.76,1.55-30.61,13.88-56.85,36-78.06,49.11-47.06,123.28-42.21,167,3.12C338,86.42,333.82,171.73,271.89,215.55c2,.84,3.78,1.58,5.54,2.3C344.48,245.37,387,294.12,403.92,364.69c2.13,8.86,2.77,18.08,4.13,27.12.17,1.16.5,2.3.75,3.44v13.58Zm-86.25-291.2c-1.1-48.72-39.39-85.79-86.57-85.5-49,.3-86.1,39.39-85.7,86.62.42,48.74,39.24,85.79,86.42,85.5C253.73,204,290.32,164.87,290.61,117.63Z"/></g></g></svg>