<svg xmlns="http://www.w3.org/2000/svg" viewBox="0 0 323.36 383.24"><defs><style>.cls-1{fill:#fff;}</style></defs><g id="레이어_2" data-name="레이어 2"><g id="레이어_1-2" data-name="레이어 1"><path class="cls-1" d="M171.41,0c6.89,1.52,14,2.38,20.64,4.66q57.67,19.86,70,79.82c.17.85.37,1.71.52,2.56s.25,1.67.41,2.79h4.17c13.72,0,27.44,0,41.17,0,8.54,0,15,6.33,15.05,14.75q.06,72,0,144.08a14.95,14.95,0,0,1-29.89-.19q0-61.94,0-123.86V120h-30v6c0,12.85,0,25.69,0,38.54a14.95,14.95,0,1,1-29.89.05c-.05-13.48,0-27,0-40.42V120H89.81v3.87c0,13.47,0,27,0,40.42,0,8.85-6.32,15.36-14.82,15.4-8.73,0-15.08-6.45-15.09-15.5,0-14.59,0-29.18,0-44.08H30.19V353.32h4.35q76.91,0,153.8,0c7.85,0,14.26,5.43,15.18,12.72a15,15,0,0,1-11.16,16.75,17.26,17.26,0,0,1-4.43.42q-86.09,0-172.15,0C6.12,383.23,0,377.06,0,367.31V105.72C0,96,6.13,89.85,15.82,89.84q20.2,0,40.42,0h4.2c2.47-18.78,9.13-35.63,20.73-50.31C98.65,17.39,121.39,4.29,149.48.72A16.82,16.82,0,0,0,151.94,0ZM232,89.65c-3.06-26.8-29.48-60.74-72.69-59.58-20.09.54-37.16,8.67-50.76,23.53A68.26,68.26,0,0,0,91.06,89.65Z"/><path class="cls-1" d="M293.41,323.38c5.42,0,10.27,0,15.12,0a15,15,0,0,1-.11,29.9c-4.84,0-9.68,0-15,0,0,4.92,0,9.6,0,14.29,0,9.12-6.26,15.64-14.92,15.65s-15-6.5-15-15.58c0-4.61,0-9.21,0-14.36H249.28c-9.17,0-15.7-6.2-15.73-14.84,0-8.88,6.46-15.06,15.86-15.08h14.08c0-5.2,0-10,0-14.86.06-8.71,6.51-15.12,15.1-15.08a14.72,14.72,0,0,1,14.81,15C293.44,313.28,293.41,318.12,293.41,323.38Z"/></g></g></svg>