<svg xmlns="http://www.w3.org/2000/svg" viewBox="0 0 213.72 50.14"><defs><style>.cls-1{fill:#fff;}</style></defs><g id="레이어_2" data-name="레이어 2"><g id="레이어_1-2" data-name="레이어 1"><path class="cls-1" d="M9.73,4.79S9,6.72,9,6.72c-.38,1-.39,1.17.65,1.26l.25,0,0,.07H7.48l0-.07L7.7,8c.76-.1.82-.23,1.54-2.13l1.67-4.59L10.8,1a.88.88,0,0,0,.44-.47h.1l2.38,6.67c.26.63.34.79.89.83L15,8l0,.07H12.1l0-.07h.38c.34,0,.7-.11.59-.41l-1-2.79Zm2.36-.11L11,1.45h0S9.78,4.68,9.77,4.68Z"/><path class="cls-1" d="M15.32,7.94l-.15-1.32h.07l.25.54a1.61,1.61,0,0,0,1.37,1A1.11,1.11,0,0,0,18.08,7c0-.71-.49-1-1.39-1.32-.61-.2-1.34-.59-1.34-1.41A1.55,1.55,0,0,1,17,2.84a2.29,2.29,0,0,1,1,.24L18.36,3l.06,1.21h-.09l-.55-.92A1.36,1.36,0,0,0,17,2.94a.93.93,0,0,0-1,1c0,.66.49.9,1.2,1.15s1.57.53,1.57,1.59A1.72,1.72,0,0,1,16.8,8.21,3.75,3.75,0,0,1,15.32,7.94Z"/><path class="cls-1" d="M22.1,7.16l.09-3.79h-.93L21.38,3h.82l0-1h.66V3h1.62l-.12.36h-1.5L22.79,7a.67.67,0,0,0,.7.81,1.65,1.65,0,0,0,1-.56l.07,0c-.48.48-.85.91-1.49.91A.91.91,0,0,1,22.1,7.16Z"/><path class="cls-1" d="M24.73,8h.21c.36,0,.49,0,.49-.17V1.26c0-.65-.06-.79-.48-.85l-.28,0v0L26.1,0V4a3.51,3.51,0,0,1,2.06-1.13,1.14,1.14,0,0,1,.85.33,1.45,1.45,0,0,1,.39,1.1V7.83c0,.07,0,.13.6.16h.18l0,.07H28L28,8h.21c.45,0,.51-.07.51-.17V4.44a1,1,0,0,0-1-1.09,2.4,2.4,0,0,0-1.61.75V7.84c0,.1.07.11.61.15h.17l0,.07H24.7Z"/><path class="cls-1" d="M30.48,5.64a2.57,2.57,0,0,1,2.46-2.8,1.69,1.69,0,0,1,1.85,1.62c0,.06,0,.08,0,.18H31.27a6.47,6.47,0,0,0-.06.66c0,1.44.85,2.46,1.92,2.46a1.8,1.8,0,0,0,1.69-1l.08,0a2.34,2.34,0,0,1-2.06,1.41A2.47,2.47,0,0,1,30.48,5.64ZM34,4.5C34,3.66,33.62,3,32.87,3a1.9,1.9,0,0,0-1.58,1.55Z"/><path class="cls-1" d="M37.44,8h.21c.38,0,.51,0,.51-.17V4.27c0-.74-.09-.91-.49-.95l-.28,0v0l1.44-.37,0,1.08,0,0a3.49,3.49,0,0,1,2.05-1.14,1.12,1.12,0,0,1,.86.33,1.47,1.47,0,0,1,.4,1.12V7.83c0,.07,0,.11.59.16h.18l0,.07H40.73l0-.07H41c.42,0,.5-.07.5-.17V4.44a1,1,0,0,0-1-1.09,2.4,2.4,0,0,0-1.6.75V7.84c0,.1.07.11.61.15h.16l0,.07H37.4Z"/><path class="cls-1" d="M46,7.41v0a2.62,2.62,0,0,1-1.55.78,1.08,1.08,0,0,1-1.16-1.08c0-.79.65-1.32,2.79-1.88l0-.71c.06-1.21-.63-1.43-1.14-1.43s-1.09.37-1.09.54.28.22.28.53a.44.44,0,0,1-.45.43.42.42,0,0,1-.46-.46c0-.55,1.3-1.27,2.16-1.27s1.4.34,1.34,1.58l-.12,2.91c0,.38.14.45.38.45a.89.89,0,0,0,.57-.36l.06,0c-.23.25-.51.72-1,.72A.74.74,0,0,1,46,7.41Zm0-.17.06-1.91c-1.87.46-2.1,1-2.1,1.58a.78.78,0,0,0,.85.87A1.88,1.88,0,0,0,46,7.24Z"/><path class="cls-1" d="M47.75,8H48c.37,0,.51,0,.51-.17V4.27c0-.74-.09-.91-.49-.95l-.28,0v0l1.44-.37-.06,1h0A2.93,2.93,0,0,1,51,2.84a1.24,1.24,0,0,1,.92.36,1.31,1.31,0,0,1,.33.72h0a2.83,2.83,0,0,1,1.87-1.08,1.2,1.2,0,0,1,.93.37,1.58,1.58,0,0,1,.37,1.08V7.83c0,.07,0,.11.6.16h.15l0,.07H54L54,8h.21c.42,0,.49-.07.49-.17V4.44c0-.7-.33-1.09-1-1.09A1.76,1.76,0,0,0,52.27,4h0V7.83c0,.07,0,.11.6.16H53l0,.07H50.85l0-.07h.22c.4,0,.47-.07.47-.17V4.44c0-.7-.34-1.09-1-1.09A2,2,0,0,0,49.14,4V7.84c0,.1.07.11.61.15h.16l0,.07H47.71Z"/><path class="cls-1" d="M56.45,5.64a2.57,2.57,0,0,1,2.46-2.8,1.69,1.69,0,0,1,1.84,1.62c0,.06,0,.08,0,.18H57.24a4.49,4.49,0,0,0-.06.66c0,1.44.85,2.46,1.92,2.46a1.81,1.81,0,0,0,1.69-1l.08,0a2.34,2.34,0,0,1-2.06,1.41A2.47,2.47,0,0,1,56.45,5.64ZM60,4.5C60,3.66,59.59,3,58.83,3a1.89,1.89,0,0,0-1.57,1.55Z"/><path class="cls-1" d="M63.48,1.92A2.09,2.09,0,0,1,64.74.34l.05,0c-.32.27-.89.54-.89,1.24,0,.48.32.64.85.51.17.19,0,.64-.5.64A.76.76,0,0,1,63.48,1.92Zm1.62,0A2.09,2.09,0,0,1,66.36.34l0,0c-.32.27-.89.54-.89,1.24,0,.48.32.64.85.51.17.19-.05.64-.5.64A.76.76,0,0,1,65.1,1.92Z"/><path class="cls-1" d="M66.83,8l.6,0c.42,0,.57-.11.57-.18V.84c0-.09-.07-.11-.69-.16l-.47,0,0-.07h3.25c1.69,0,2.62.63,2.62,1.77s-1.12,2.07-2.75,2.07a8.8,8.8,0,0,1-1.14-.09V7.81c0,.08.07.12.7.15l.58,0,0,.07H66.79Zm5-5.52c0-1.15-.55-1.83-2.11-1.81h-1V4.17a3.86,3.86,0,0,0,1.14.16A1.69,1.69,0,0,0,71.84,2.48Z"/><path class="cls-1" d="M72.71,5.64a2.57,2.57,0,0,1,2.46-2.8A1.69,1.69,0,0,1,77,4.46c0,.06,0,.08,0,.18H73.5a4.49,4.49,0,0,0-.06.66c0,1.44.85,2.46,1.92,2.46a1.81,1.81,0,0,0,1.69-1l.08,0a2.34,2.34,0,0,1-2.06,1.41A2.47,2.47,0,0,1,72.71,5.64ZM76.23,4.5c0-.84-.38-1.54-1.14-1.54a1.89,1.89,0,0,0-1.57,1.55Z"/><path class="cls-1" d="M77.51,8h.21c.37,0,.51,0,.51-.17V4.27c0-.74-.09-.91-.5-.95l-.27,0v0l1.44-.37,0,2.09h0c.33-1.27.86-2.12,1.61-2.12a.58.58,0,0,1,.64.55.51.51,0,0,1-.5.53c-.26,0-.5-.23-.52-.69-.58.12-.84.64-1.2,2V7.84c0,.1,0,.14.51.15h.4l0,.07H77.47Z"/><path class="cls-1" d="M81.23,8h.2c.37,0,.5,0,.5-.17V1.35c0-.74-.06-.88-.49-.94l-.26,0v0L82.61,0V7.84c0,.1,0,.12.6.15h.16l0,.07H81.2Z"/><path class="cls-1" d="M83.7,5.64a2.57,2.57,0,0,1,2.46-2.8A1.68,1.68,0,0,1,88,4.46c0,.06,0,.08,0,.18H84.49a6.47,6.47,0,0,0-.06.66c0,1.44.85,2.46,1.92,2.46a1.81,1.81,0,0,0,1.69-1l.08,0a2.34,2.34,0,0,1-2.06,1.41A2.47,2.47,0,0,1,83.7,5.64ZM87.22,4.5c0-.84-.38-1.54-1.13-1.54a1.9,1.9,0,0,0-1.58,1.55Z"/><path class="cls-1" d="M88.5,8h.21c.38,0,.51,0,.51-.17V4.27c0-.74-.09-.91-.49-.95l-.28,0v0l1.44-.37,0,1.08,0,0a3.49,3.49,0,0,1,2-1.14,1.12,1.12,0,0,1,.86.33,1.47,1.47,0,0,1,.4,1.12V7.83c0,.07,0,.11.59.16H94l0,.07H91.78l0-.07H92c.42,0,.5-.07.5-.17V4.44a1,1,0,0,0-1.06-1.09,2.4,2.4,0,0,0-1.59.75V7.84c0,.1.07.11.61.15h.16l0,.07H88.46Z"/><path class="cls-1" d="M94.28,2.77c.31-.24.89-.52.89-1.21,0-.48-.32-.65-.85-.52-.15-.19.07-.66.5-.66a.79.79,0,0,1,.77.89,2.08,2.08,0,0,1-1.26,1.56Zm1.62,0c.31-.24.89-.52.89-1.21,0-.48-.32-.65-.83-.52-.17-.19.05-.66.48-.66a.79.79,0,0,1,.77.89A2.08,2.08,0,0,1,96,2.83Z"/><path class="cls-1" d="M99.83,8H100c.37,0,.51,0,.51-.17V4.27c0-.74-.09-.91-.5-.95l-.27,0v0l1.44-.37-.06,1h0A2.93,2.93,0,0,1,103,2.84a1.24,1.24,0,0,1,.92.36,1.31,1.31,0,0,1,.33.72h0a2.81,2.81,0,0,1,1.87-1.08,1.18,1.18,0,0,1,.92.37,1.54,1.54,0,0,1,.38,1.08V7.83c0,.07,0,.11.6.16h.15l0,.07H106l0-.07h.22c.42,0,.49-.07.49-.17V4.44c0-.7-.33-1.09-1-1.09a1.76,1.76,0,0,0-1.39.68h0V7.83c0,.07,0,.11.6.16h.16l0,.07h-2.21L103,8h.21c.41,0,.48-.07.48-.17V4.44c0-.7-.34-1.09-1-1.09a2,2,0,0,0-1.41.66V7.84c0,.1.07.11.61.15H102l0,.07H99.79Z"/><path class="cls-1" d="M108.53,5.64A2.57,2.57,0,0,1,111,2.84a1.69,1.69,0,0,1,1.85,1.62c0,.06,0,.08,0,.18h-3.49a4.49,4.49,0,0,0-.06.66c0,1.44.85,2.46,1.92,2.46a1.81,1.81,0,0,0,1.69-1l.08,0a2.34,2.34,0,0,1-2.06,1.41A2.47,2.47,0,0,1,108.53,5.64Zm3.52-1.14c0-.84-.38-1.54-1.14-1.54a1.89,1.89,0,0,0-1.57,1.55Z"/><path class="cls-1" d="M116.17,7.41v0a2.62,2.62,0,0,1-1.55.78,1.08,1.08,0,0,1-1.16-1.08c0-.79.65-1.32,2.79-1.88l0-.71c.06-1.21-.63-1.43-1.14-1.43s-1.09.37-1.09.54.28.22.28.53a.44.44,0,0,1-.45.43.42.42,0,0,1-.46-.46c0-.55,1.3-1.27,2.16-1.27s1.4.34,1.34,1.58l-.12,2.91c0,.38.14.45.38.45a.89.89,0,0,0,.57-.36l.06,0c-.23.25-.51.72-1,.72A.74.74,0,0,1,116.17,7.41Zm0-.17.06-1.91c-1.87.46-2.1,1-2.1,1.58a.78.78,0,0,0,.86.87A1.88,1.88,0,0,0,116.19,7.24Z"/><path class="cls-1" d="M117.9,8h.21c.38,0,.51,0,.51-.17V4.27c0-.74-.09-.91-.49-.95l-.28,0v0l1.44-.37,0,1.08,0,0a3.49,3.49,0,0,1,2-1.14,1.12,1.12,0,0,1,.86.33,1.47,1.47,0,0,1,.4,1.12V7.83c0,.07,0,.11.59.16h.18l0,.07h-2.22l0-.07h.22c.42,0,.5-.07.5-.17V4.44a1,1,0,0,0-1.06-1.09,2.4,2.4,0,0,0-1.59.75V7.84c0,.1.07.11.61.15h.16l0,.07h-2.24Z"/><path class="cls-1" d="M123.86,7.94l-.15-1.32h.07l.25.54a1.6,1.6,0,0,0,1.37,1A1.11,1.11,0,0,0,126.62,7c0-.71-.49-1-1.39-1.32-.61-.2-1.34-.59-1.34-1.41a1.55,1.55,0,0,1,1.6-1.45,2.29,2.29,0,0,1,1,.24L126.9,3,127,4.16h-.09l-.55-.92a1.36,1.36,0,0,0-.83-.31.93.93,0,0,0-1,1c0,.66.49.9,1.2,1.15s1.57.53,1.57,1.59a1.72,1.72,0,0,1-1.87,1.57A3.75,3.75,0,0,1,123.86,7.94Z"/><path class="cls-1" d="M130.08,7.94l-.16-1.32H130l.26.54a1.58,1.58,0,0,0,1.36,1A1.12,1.12,0,0,0,132.84,7c0-.71-.5-1-1.39-1.32-.62-.2-1.35-.59-1.35-1.41a1.56,1.56,0,0,1,1.61-1.45,2.32,2.32,0,0,1,1,.24l.38-.13.06,1.21h-.08l-.55-.92a1.41,1.41,0,0,0-.83-.31.93.93,0,0,0-1.06,1c0,.66.5.9,1.2,1.15s1.57.53,1.57,1.59a1.71,1.71,0,0,1-1.87,1.57A3.67,3.67,0,0,1,130.08,7.94Z"/><path class="cls-1" d="M133.81,8h.2c.36,0,.5,0,.5-.17V1.26c0-.65-.06-.79-.48-.85l-.28,0v0L135.18,0V4a3.51,3.51,0,0,1,2.06-1.13,1.14,1.14,0,0,1,.85.33,1.49,1.49,0,0,1,.39,1.1V7.83c0,.07,0,.13.59.16h.18l0,.07h-2.23l0-.07h.21c.45,0,.51-.07.51-.17V4.44a1,1,0,0,0-1-1.09,2.38,2.38,0,0,0-1.6.75V7.84c0,.1.07.11.61.15H136l0,.07h-2.22Z"/><path class="cls-1" d="M139.52,8h.22c.37,0,.5,0,.5-.17V4.25c0-.72-.08-.89-.49-.93l-.28,0,0,0,1.42-.37v5c0,.1.08.11.6.15h.17l0,.07h-2.23ZM140,1.2a.53.53,0,0,1,.52-.53.5.5,0,0,1,.49.53.49.49,0,0,1-.49.5A.52.52,0,0,1,140,1.2Z"/><path class="cls-1" d="M142,8h.22c.37,0,.5,0,.5-.17V4.27c0-.74-.08-.91-.49-.95l-.28,0v0l1.44-.37,0,1.08,0,0a3.49,3.49,0,0,1,2-1.14,1.16,1.16,0,0,1,.87.33,1.5,1.5,0,0,1,.39,1.12V7.83c0,.07,0,.11.59.16h.18l0,.07h-2.21l0-.07h.22c.42,0,.5-.07.5-.17V4.44a1,1,0,0,0-1-1.09,2.4,2.4,0,0,0-1.6.75V7.84c0,.1.07.11.61.15h.16l.05.07h-2.25Z"/><path class="cls-1" d="M147.71,8h.21c.37,0,.51,0,.51-.17V4.25c0-.72-.09-.89-.5-.93l-.27,0v0l1.43-.37v5c0,.1.07.11.6.15h.16l0,.07h-2.23Zm.43-6.8a.52.52,0,0,1,.51-.53.5.5,0,0,1,.49.53.49.49,0,0,1-.49.5A.51.51,0,0,1,148.14,1.2Z"/><path class="cls-1" d="M150.15,8h.22c.37,0,.5,0,.5-.17V4.27c0-.74-.08-.91-.49-.95l-.27,0v0l1.44-.37,0,1.08,0,0a3.52,3.52,0,0,1,2.06-1.14,1.12,1.12,0,0,1,.86.33,1.51,1.51,0,0,1,.4,1.12V7.83c0,.07,0,.11.58.16h.18l0,.07h-2.22l0-.07h.21c.42,0,.51-.07.51-.17V4.44a1,1,0,0,0-1.06-1.09,2.4,2.4,0,0,0-1.6.75V7.84c0,.1.08.11.62.15h.15l.05.07h-2.24Z"/><path class="cls-1" d="M155.79,9.73c0-.69.83-1.29,1.44-1.52h0c-.8-.06-1.32-.3-1.32-.78s.75-1.11,1.42-1.22h0a1.62,1.62,0,0,1-1.14-1.52,1.86,1.86,0,0,1,1.94-1.82,2.06,2.06,0,0,1,1.23.41L160.71,3l-.07.42-1.12,0v0a1.6,1.6,0,0,1,.55,1.15,1.85,1.85,0,0,1-2,1.76,3.37,3.37,0,0,1-.62-.08c-.49.09-.88.41-.88.74s.28.55,1,.55l1.36,0c1.08,0,1.76.49,1.76,1.26,0,1.29-1.25,2.29-3,2.29C156.59,11.06,155.79,10.55,155.79,9.73Zm4.51-.45c0-.67-.46-1.08-1.51-1.11a11,11,0,0,0-1.41.07,1.69,1.69,0,0,0-1.08,1.35c0,.71.74,1.26,1.88,1.26S160.3,10.18,160.3,9.28Zm-.94-4.61c0-1-.46-1.72-1.24-1.72s-1.22.67-1.22,1.59.52,1.7,1.21,1.7A1.41,1.41,0,0,0,159.36,4.67Z"/><path class="cls-1" d="M163.25,8h.2c.37,0,.5,0,.5-.17V1.35c0-.74-.06-.88-.49-.94l-.26,0v0L164.62,0V7.84c0,.1,0,.12.6.15h.17l0,.07h-2.21Z"/><path class="cls-1" d="M165.68,8h.22c.37,0,.5,0,.5-.17V4.25c0-.72-.08-.89-.49-.93l-.28,0,0,0,1.42-.37v5c0,.1.07.11.6.15h.17l0,.07h-2.23Zm.43-6.8a.53.53,0,0,1,.52-.53.5.5,0,0,1,.49.53.49.49,0,0,1-.49.5A.52.52,0,0,1,166.11,1.2Z"/><path class="cls-1" d="M168,8h.21c.36,0,.49,0,.49-.17V1.26c0-.65-.06-.82-.48-.85l-.28,0,0,0L169.4,0V5.76l1.21-1.2c.42-.44.83-.91.83-1.14s-.2-.29-.62-.33h-.16l0-.07h2.23l0,.07-.26,0c-.55,0-.82.45-1.78,1.41a2.73,2.73,0,0,0-.23.25l1.55,2.52c.34.55.41.65.92.7h.14l0,.07h-1.47l-.06-.14-1.61-2.68-.66.65V7.84c0,.1.07.11.59.15h.17l0,.07H168Z"/><path class="cls-1" d="M172.92,5.64a2.57,2.57,0,0,1,2.46-2.8,1.68,1.68,0,0,1,1.84,1.62c0,.06,0,.08,0,.18h-3.49a6.47,6.47,0,0,0-.06.66c0,1.44.85,2.46,1.92,2.46a1.81,1.81,0,0,0,1.69-1l.08,0a2.34,2.34,0,0,1-2.06,1.41A2.47,2.47,0,0,1,172.92,5.64Zm3.52-1.14c0-.84-.38-1.54-1.14-1.54a1.89,1.89,0,0,0-1.57,1.55Z"/><path class="cls-1" d="M179.69,11h.21c.36,0,.5,0,.5-.15V4.25c0-.72-.07-.89-.49-.93l-.27,0v0l1.44-.37v1l0,0A2.57,2.57,0,0,1,183,2.9a2.25,2.25,0,0,1,2.14,2.47,2.73,2.73,0,0,1-2.49,2.84,3.58,3.58,0,0,1-1.53-.37h0v3.05c0,.08.06.12.6.13h.4l0,.08h-2.47Zm4.64-5.37c0-1.32-.68-2.35-1.75-2.35a2,2,0,0,0-1.5.8V7.22a1.88,1.88,0,0,0,1.58.88C183.69,8.1,184.33,7.1,184.33,5.66Z"/><path class="cls-1" d="M185.56,5.64A2.57,2.57,0,0,1,188,2.84a1.69,1.69,0,0,1,1.85,1.62c0,.06,0,.08,0,.18h-3.49a4.49,4.49,0,0,0-.06.66c0,1.44.85,2.46,1.92,2.46a1.81,1.81,0,0,0,1.69-1l.08,0a2.34,2.34,0,0,1-2.06,1.41A2.48,2.48,0,0,1,185.56,5.64Zm3.53-1.14c0-.84-.38-1.54-1.14-1.54a1.89,1.89,0,0,0-1.57,1.55Z"/><path class="cls-1" d="M193.21,7.41v0a2.62,2.62,0,0,1-1.55.78,1.08,1.08,0,0,1-1.16-1.08c0-.79.65-1.32,2.79-1.88l0-.71c.06-1.21-.63-1.43-1.14-1.43s-1.1.37-1.1.54.29.22.29.53a.44.44,0,0,1-.45.43.42.42,0,0,1-.46-.46c0-.55,1.3-1.27,2.16-1.27s1.4.34,1.34,1.58l-.12,2.91c0,.38.14.45.38.45a.89.89,0,0,0,.57-.36l.06,0c-.23.25-.52.72-1,.72A.74.74,0,0,1,193.21,7.41Zm0-.17.06-1.91c-1.87.46-2.1,1-2.1,1.58a.78.78,0,0,0,.85.87A1.88,1.88,0,0,0,193.23,7.24Z"/><path class="cls-1" d="M194.94,8h.21c.37,0,.51,0,.51-.17V4.27c0-.74-.09-.91-.49-.95l-.28,0v0l1.44-.37L196.29,5h0c.33-1.27.86-2.12,1.61-2.12a.58.58,0,0,1,.64.55.51.51,0,0,1-.49.53c-.27,0-.51-.23-.53-.69-.58.12-.84.64-1.2,2V7.84c0,.1,0,.14.51.15h.4l0,.07H194.9Z"/><path class="cls-1" d="M198.66,8h.2c.37,0,.5,0,.5-.17V1.35c0-.74-.06-.88-.49-.94l-.26,0v0L200,0V7.84c0,.1,0,.12.6.15h.16l0,.07h-2.21Z"/><path class="cls-1" d="M201.32,7.94l-.16-1.32h.08l.25.54a1.59,1.59,0,0,0,1.37,1A1.11,1.11,0,0,0,204.08,7c0-.71-.49-1-1.39-1.32-.61-.2-1.35-.59-1.35-1.41A1.56,1.56,0,0,1,203,2.84a2.32,2.32,0,0,1,1,.24l.38-.13.07,1.21h-.09l-.55-.92a1.36,1.36,0,0,0-.83-.31.93.93,0,0,0-1,1c0,.66.49.9,1.2,1.15s1.57.53,1.57,1.59a1.72,1.72,0,0,1-1.87,1.57A3.72,3.72,0,0,1,201.32,7.94Z"/><path class="cls-1" d="M205.22,9.2A1.39,1.39,0,0,0,206.06,8a.5.5,0,0,0-.79-.47.48.48,0,0,1,.49-.7.79.79,0,0,1,.77.86,1.88,1.88,0,0,1-1.26,1.56Z"/><path class="cls-1" d="M26.47,16.9c-.24-.71-.29-.78-.67-.81h-.22V16h2.26l0,.07H27.6c-.48,0-.57.17-.39.63l1.28,3.4,1.18-2.79-.19-.5c-.25-.65-.32-.7-.71-.74h-.21l0-.07h2.25l0,.07h-.2c-.47,0-.51.17-.34.63l1.44,3.44.9-2.69c.37-1.11.36-1.3-.46-1.38h-.14l0-.07h1.92l0,.07h0c-.55.06-.69.23-1.12,1.53l-1.2,3.57h-.08l-1.6-3.72-1.58,3.72h-.08Z"/><path class="cls-1" d="M33.77,18.64a2.57,2.57,0,0,1,2.46-2.8,1.69,1.69,0,0,1,1.84,1.62c0,.06,0,.08,0,.18H34.56a4.49,4.49,0,0,0-.06.66c0,1.44.85,2.46,1.92,2.46a1.81,1.81,0,0,0,1.69-1l.08,0a2.34,2.34,0,0,1-2.06,1.41A2.47,2.47,0,0,1,33.77,18.64Zm3.52-1.14c0-.84-.38-1.54-1.14-1.54a1.89,1.89,0,0,0-1.57,1.55Z"/><path class="cls-1" d="M43.57,20.41v0a2.62,2.62,0,0,1-1.55.78,1.08,1.08,0,0,1-1.16-1.08c0-.79.65-1.32,2.79-1.88l0-.71c.06-1.21-.63-1.43-1.14-1.43s-1.09.37-1.09.54.28.22.28.53a.44.44,0,0,1-.45.43.42.42,0,0,1-.46-.46c0-.55,1.3-1.27,2.16-1.27s1.4.34,1.34,1.58l-.12,2.91c0,.38.14.45.38.45a.89.89,0,0,0,.57-.36l.06,0c-.23.25-.51.72-1,.72A.74.74,0,0,1,43.57,20.41Zm0-.17.06-1.91c-1.87.46-2.1,1-2.1,1.58a.78.78,0,0,0,.86.87A1.88,1.88,0,0,0,43.59,20.24Z"/><path class="cls-1" d="M45.25,21h.2c.38,0,.51,0,.51-.17V14.35c0-.74-.06-.88-.49-.94l-.27,0v0L46.63,13v7.84c0,.1,0,.12.6.15h.17l0,.07h-2.2Z"/><path class="cls-1" d="M48.2,16.9c-.24-.71-.29-.78-.67-.81h-.22V16h2.26l-.05.07h-.18c-.48,0-.56.17-.38.63l1.27,3.4,1.18-2.79-.19-.5c-.25-.65-.32-.7-.71-.74h-.21l0-.07H52.5l0,.07h-.2c-.47,0-.51.17-.34.63l1.44,3.44.9-2.69c.37-1.11.36-1.3-.46-1.38h-.14l0-.07h1.92l0,.07h-.05c-.55.06-.68.23-1.12,1.53l-1.19,3.57h-.09l-1.59-3.72-1.59,3.72h-.08Z"/><path class="cls-1" d="M58.3,20.41v0a2.59,2.59,0,0,1-1.54.78,1.09,1.09,0,0,1-1.17-1.08c0-.79.65-1.32,2.8-1.88l0-.71c.06-1.21-.62-1.43-1.14-1.43s-1.09.37-1.09.54.29.22.29.53a.45.45,0,0,1-.46.43.42.42,0,0,1-.45-.46c0-.55,1.29-1.27,2.16-1.27s1.4.34,1.34,1.58l-.12,2.91c0,.38.13.45.37.45a.91.91,0,0,0,.58-.36l.06,0c-.23.25-.52.72-1,.72A.75.75,0,0,1,58.3,20.41Zm0-.17.06-1.91c-1.87.46-2.1,1-2.1,1.58a.78.78,0,0,0,.85.87A1.88,1.88,0,0,0,58.33,20.24Z"/><path class="cls-1" d="M59.54,23.66a.48.48,0,0,1,.48-.49.57.57,0,0,1,.53.59c.58-.11.79-.63,1.21-1.9l.24-.73v0l-1.77-4.26c-.26-.66-.3-.73-.68-.76h-.22l0-.07h2.24v.07h-.2c-.46,0-.51.18-.34.64l1.39,3.42,1-2.71c.4-1.13.34-1.27-.46-1.35h-.17l0-.07h2l0,.07h-.13c-.56,0-.62.23-1.1,1.49L62.1,21.16l-.33,1c-.42,1.36-.84,2-1.58,2C59.81,24.14,59.54,23.93,59.54,23.66Z"/><path class="cls-1" d="M64.64,20.94l-.15-1.32h.07l.25.54a1.6,1.6,0,0,0,1.37,1A1.11,1.11,0,0,0,67.4,20c0-.71-.49-1.05-1.39-1.32-.61-.2-1.34-.59-1.34-1.41a1.55,1.55,0,0,1,1.6-1.45,2.29,2.29,0,0,1,1,.24l.39-.13.06,1.21h-.09l-.55-.92a1.36,1.36,0,0,0-.83-.31.93.93,0,0,0-1,1c0,.66.49.9,1.2,1.15S68,18.58,68,19.64a1.72,1.72,0,0,1-1.87,1.57A3.75,3.75,0,0,1,64.64,20.94Z"/><path class="cls-1" d="M70.63,21h.22c.37,0,.5,0,.5-.17V17.27c0-.74-.08-.91-.49-.95l-.28,0v-.05L72,15.87,72,18h0c.32-1.27.85-2.12,1.6-2.12a.58.58,0,0,1,.64.55.51.51,0,0,1-.49.53c-.27,0-.5-.23-.53-.69-.57.12-.84.64-1.2,2v2.62c0,.1,0,.14.52.15h.39l0,.07H70.59Z"/><path class="cls-1" d="M74.37,18.64a2.57,2.57,0,0,1,2.46-2.8,1.69,1.69,0,0,1,1.85,1.62c0,.06,0,.08,0,.18H75.17a4.49,4.49,0,0,0-.06.66c0,1.44.85,2.46,1.91,2.46a1.83,1.83,0,0,0,1.7-1l.08,0a2.34,2.34,0,0,1-2.06,1.41A2.48,2.48,0,0,1,74.37,18.64ZM77.9,17.5c0-.84-.38-1.54-1.14-1.54a1.89,1.89,0,0,0-1.57,1.55Z"/><path class="cls-1" d="M79.4,20.94l-.15-1.32h.07l.25.54a1.6,1.6,0,0,0,1.37,1A1.11,1.11,0,0,0,82.16,20c0-.71-.49-1.05-1.39-1.32-.61-.2-1.34-.59-1.34-1.41A1.55,1.55,0,0,1,81,15.84a2.29,2.29,0,0,1,1,.24l.39-.13.06,1.21h-.09l-.55-.92a1.36,1.36,0,0,0-.83-.31.93.93,0,0,0-1,1c0,.66.49.9,1.2,1.15s1.57.53,1.57,1.59a1.72,1.72,0,0,1-1.87,1.57A3.75,3.75,0,0,1,79.4,20.94Z"/><path class="cls-1" d="M83,24h.21c.36,0,.51,0,.51-.15V17.25c0-.72-.07-.89-.49-.93l-.28,0v-.05l1.44-.37v1.05l0,0a2.57,2.57,0,0,1,1.87-1.06,2.25,2.25,0,0,1,2.14,2.47A2.73,2.73,0,0,1,86,21.21a3.59,3.59,0,0,1-1.54-.37h0v3.05c0,.08.06.12.6.13h.41l0,.08H83Zm4.64-5.37c0-1.32-.67-2.35-1.75-2.35a2,2,0,0,0-1.5.8v3.11A1.89,1.89,0,0,0,86,21.1C87,21.1,87.68,20.1,87.68,18.66Z"/><path class="cls-1" d="M88.92,18.64a2.57,2.57,0,0,1,2.46-2.8,1.68,1.68,0,0,1,1.84,1.62c0,.06,0,.08,0,.18H89.71a6.47,6.47,0,0,0-.06.66c0,1.44.85,2.46,1.92,2.46a1.81,1.81,0,0,0,1.69-1l.08,0a2.34,2.34,0,0,1-2.06,1.41A2.47,2.47,0,0,1,88.92,18.64Zm3.52-1.14c0-.84-.38-1.54-1.13-1.54a1.9,1.9,0,0,0-1.58,1.55Z"/><path class="cls-1" d="M93.75,18.64a2.68,2.68,0,0,1,2.64-2.8c1,0,1.66.48,1.66,1.11a.53.53,0,0,1-.48.52A.43.43,0,0,1,97.1,17c0-.37.24-.45.24-.55s-.42-.55-1-.55a2.15,2.15,0,0,0-1.89,2.34c0,1.44.85,2.47,1.91,2.47a1.76,1.76,0,0,0,1.67-1l.11,0a2.36,2.36,0,0,1-2.08,1.41A2.48,2.48,0,0,1,93.75,18.64Z"/><path class="cls-1" d="M99.18,20.16l.08-3.79h-.92l.12-.36h.81l0-1H100v1h1.61l-.12.36H100L99.86,20a.68.68,0,0,0,.71.81c.47,0,.73-.32,1-.56l.07,0c-.48.48-.85.91-1.48.91A.91.91,0,0,1,99.18,20.16Z"/><path class="cls-1" d="M104.05,23.66a.48.48,0,0,1,.48-.49.58.58,0,0,1,.53.59c.57-.11.79-.63,1.21-1.9l.24-.73v0l-1.78-4.26c-.25-.66-.3-.73-.67-.76h-.23l0-.07H106v.07h-.2c-.46,0-.51.18-.34.64l1.39,3.42,1-2.71c.4-1.13.34-1.27-.47-1.35h-.16l0-.07h2l0,.07h-.14c-.55,0-.61.23-1.09,1.49l-1.37,3.58-.32,1c-.42,1.36-.84,2-1.58,2C104.31,24.14,104.05,23.93,104.05,23.66Z"/><path class="cls-1" d="M109,18.56a2.67,2.67,0,0,1,2.61-2.72,2.6,2.6,0,0,1,2.59,2.65,2.63,2.63,0,0,1-2.59,2.72A2.6,2.6,0,0,1,109,18.56Zm4.4.06a3.14,3.14,0,0,0-.67-2.2,1.56,1.56,0,0,0-1.14-.48c-1,0-1.81,1.07-1.81,2.44a3.36,3.36,0,0,0,.74,2.34,1.55,1.55,0,0,0,1.1.42C112.57,21.14,113.36,20,113.36,18.62Z"/><path class="cls-1" d="M118.5,20.14h0a3.42,3.42,0,0,1-2,1.07,1.26,1.26,0,0,1-.94-.32,1.51,1.51,0,0,1-.36-1.1V16.24c0-.07,0-.1-.61-.15h-.17l0-.07h1.47v3.62a1,1,0,0,0,1.07,1.11,2.33,2.33,0,0,0,1.55-.71V16.72c0-.51-.11-.59-.6-.63h-.17l0-.07h1.49v4.41c0,.27.05.4.42.44h.35v.07l-1.44.31Z"/><path class="cls-1" d="M120,21h.22c.37,0,.5,0,.5-.17V17.27c0-.74-.08-.91-.49-.95l-.28,0,0-.05,1.44-.37L121.38,18h0c.32-1.27.85-2.12,1.61-2.12a.57.57,0,0,1,.63.55.51.51,0,0,1-.49.53c-.26,0-.5-.23-.53-.69-.57.12-.84.64-1.2,2v2.62c0,.1,0,.14.52.15h.39l0,.07H120Z"/><path class="cls-1" d="M126.81,16.85c-.26-.66-.3-.73-.67-.76h-.23l0-.07h2.25l0,.07h-.21c-.45,0-.51.18-.34.64l1.35,3.39L130,17.46c.43-1.15.43-1.32-.38-1.37h-.16l0-.07h1.94l0,.07h-.08c-.55,0-.64.23-1.17,1.49l-1.42,3.61h-.08Z"/><path class="cls-1" d="M134,20.41v0a2.62,2.62,0,0,1-1.55.78,1.08,1.08,0,0,1-1.16-1.08c0-.79.65-1.32,2.79-1.88l0-.71c.06-1.21-.63-1.43-1.14-1.43s-1.09.37-1.09.54.29.22.29.53a.45.45,0,0,1-.46.43.43.43,0,0,1-.46-.46c0-.55,1.3-1.27,2.16-1.27s1.41.34,1.35,1.58l-.12,2.91c0,.38.13.45.37.45a.89.89,0,0,0,.57-.36l.06,0c-.22.25-.51.72-1,.72A.74.74,0,0,1,134,20.41Zm0-.17.06-1.91c-1.87.46-2.09,1-2.09,1.58a.78.78,0,0,0,.85.87A1.88,1.88,0,0,0,134,20.24Z"/><path class="cls-1" d="M135.68,21h.21c.37,0,.5,0,.5-.17V14.35c0-.74-.06-.88-.49-.94l-.27,0,0,0,1.41-.34v7.84c0,.1.05.12.6.15h.17l0,.07h-2.2Z"/><path class="cls-1" d="M142,20.14h0a3.48,3.48,0,0,1-2,1.07,1.26,1.26,0,0,1-.94-.32,1.51,1.51,0,0,1-.36-1.1V16.24c0-.07,0-.1-.61-.15h-.17l0-.07h1.47l0,3.62a1,1,0,0,0,1.06,1.11A2.33,2.33,0,0,0,142,20V16.72c0-.51-.11-.59-.6-.63h-.17l0-.07h1.48v4.41c0,.27.05.4.42.44h.35v.07l-1.44.31Z"/><path class="cls-1" d="M143.59,18.64a2.57,2.57,0,0,1,2.46-2.8,1.69,1.69,0,0,1,1.85,1.62c0,.06,0,.08,0,.18h-3.49a6.47,6.47,0,0,0-.06.66c0,1.44.85,2.46,1.92,2.46a1.8,1.8,0,0,0,1.69-1l.08,0A2.34,2.34,0,0,1,146,21.21,2.47,2.47,0,0,1,143.59,18.64Zm3.53-1.14c0-.84-.39-1.54-1.14-1.54a1.9,1.9,0,0,0-1.58,1.55Z"/><path class="cls-1" d="M153.39,20.41v0a2.62,2.62,0,0,1-1.55.78,1.08,1.08,0,0,1-1.16-1.08c0-.79.65-1.32,2.8-1.88l0-.71c.06-1.21-.62-1.43-1.14-1.43s-1.09.37-1.09.54.29.22.29.53a.45.45,0,0,1-.46.43.42.42,0,0,1-.45-.46c0-.55,1.29-1.27,2.15-1.27s1.41.34,1.35,1.58L154,20.33c0,.38.13.45.37.45a.93.93,0,0,0,.58-.36l.05,0c-.22.25-.51.72-1,.72A.74.74,0,0,1,153.39,20.41Zm0-.17.06-1.91c-1.88.46-2.1,1-2.1,1.58a.78.78,0,0,0,.85.87A1.91,1.91,0,0,0,153.42,20.24Z"/><path class="cls-1" d="M155.12,21h.22c.37,0,.5,0,.5-.17V17.27c0-.74-.08-.91-.49-.95l-.28,0v-.05l1.44-.37,0,1.08,0,0a3.52,3.52,0,0,1,2.05-1.14,1.16,1.16,0,0,1,.87.33,1.5,1.5,0,0,1,.39,1.12v3.54c0,.07,0,.11.59.16h.18l0,.07h-2.22l0-.07h.22c.42,0,.5-.07.5-.17V17.44a1,1,0,0,0-1-1.09,2.4,2.4,0,0,0-1.6.75v3.74c0,.1.07.11.61.15h.16l.05.07h-2.25Z"/><path class="cls-1" d="M164.92,14.24c0-.63-.06-.81-.48-.83l-.39,0v-.07l1.53-.33v7.47c0,.26,0,.39.41.43l.36,0V21l-1.42.27v-1h0a2.62,2.62,0,0,1-1.87,1,2.3,2.3,0,0,1-2.14-2.54,2.7,2.7,0,0,1,2.62-2.77,2.58,2.58,0,0,1,1.41.4Zm0,5.76V17a1.83,1.83,0,0,0-1.56-1c-1,0-1.69.94-1.69,2.36s.7,2.43,1.75,2.43A2,2,0,0,0,164.92,20Z"/><path class="cls-1" d="M169.44,20.16l.08-3.79h-.92l.12-.36h.81l0-1h.66l0,1h1.62l-.12.36h-1.5L170.12,20a.68.68,0,0,0,.71.81c.47,0,.73-.32,1-.56l.07,0c-.48.48-.85.91-1.49.91A.9.9,0,0,1,169.44,20.16Z"/><path class="cls-1" d="M175,20.41v0a2.62,2.62,0,0,1-1.54.78,1.09,1.09,0,0,1-1.17-1.08c0-.79.65-1.32,2.8-1.88l0-.71c.06-1.21-.62-1.43-1.14-1.43s-1.09.37-1.09.54.29.22.29.53a.45.45,0,0,1-.46.43.42.42,0,0,1-.45-.46c0-.55,1.29-1.27,2.16-1.27s1.4.34,1.34,1.58l-.12,2.91c0,.38.13.45.37.45a.91.91,0,0,0,.58-.36l.06,0c-.23.25-.52.72-1,.72A.75.75,0,0,1,175,20.41Zm0-.17.06-1.91c-1.87.46-2.1,1-2.1,1.58a.78.78,0,0,0,.85.87A1.88,1.88,0,0,0,175,20.24Z"/><path class="cls-1" d="M177,20.94l-.16-1.32h.08l.25.54a1.59,1.59,0,0,0,1.37,1A1.11,1.11,0,0,0,179.72,20c0-.71-.49-1.05-1.39-1.32-.61-.2-1.35-.59-1.35-1.41a1.56,1.56,0,0,1,1.61-1.45,2.32,2.32,0,0,1,1,.24L180,16l.06,1.21H180l-.55-.92a1.36,1.36,0,0,0-.83-.31.93.93,0,0,0-1.05,1c0,.66.49.9,1.2,1.15s1.57.53,1.57,1.59a1.72,1.72,0,0,1-1.87,1.57A3.72,3.72,0,0,1,177,20.94Z"/><path class="cls-1" d="M181.46,20.16l.08-3.79h-.92l.12-.36h.82l0-1h.66v1h1.62l-.12.36h-1.5L182.14,20a.68.68,0,0,0,.71.81c.47,0,.73-.32,1-.56l.08,0c-.48.48-.86.91-1.49.91A.91.91,0,0,1,181.46,20.16Z"/><path class="cls-1" d="M184,18.64a2.57,2.57,0,0,1,2.46-2.8,1.69,1.69,0,0,1,1.85,1.62c0,.06,0,.08,0,.18h-3.49a6.47,6.47,0,0,0-.06.66c0,1.44.85,2.46,1.92,2.46a1.8,1.8,0,0,0,1.69-1l.09,0a2.36,2.36,0,0,1-2.07,1.41A2.48,2.48,0,0,1,184,18.64Zm3.53-1.14c0-.84-.39-1.54-1.14-1.54a1.89,1.89,0,0,0-1.57,1.55Z"/><path class="cls-1" d="M22.41,34l.48,0c.42,0,.57-.11.57-.18V26.84c0-.09-.07-.11-.69-.16l-.35,0,0-.07h5.32L28,28.51l-.05,0-.08-.16c-.47-1.23-.94-1.66-1.74-1.66H24.24V30h1.4c.9,0,1-.19,1.19-.91L26.9,29H27l-.23,2.28h-.06v-.13c-.06-.83-.11-.91-1.11-.94l-1.31,0v3.77l2,0c1.16,0,1.65-.75,2.1-1.82l.07-.17h.07l-.55,2.09H22.37Z"/><path class="cls-1" d="M29.15,29.85c-.26-.66-.3-.73-.67-.76h-.23l0-.07h2.25l0,.07h-.21c-.45,0-.51.18-.34.64l1.35,3.39,1-2.66c.43-1.15.43-1.32-.38-1.37h-.16l0-.07h1.94l0,.07h-.08c-.55,0-.64.23-1.17,1.49L31,34.19h-.08Z"/><path class="cls-1" d="M33.53,31.64A2.57,2.57,0,0,1,36,28.84a1.69,1.69,0,0,1,1.85,1.62c0,.06,0,.08,0,.18H34.33a4.49,4.49,0,0,0-.06.66c0,1.44.85,2.46,1.91,2.46a1.83,1.83,0,0,0,1.7-1l.08,0a2.34,2.34,0,0,1-2.06,1.41A2.48,2.48,0,0,1,33.53,31.64Zm3.53-1.14c0-.84-.38-1.54-1.14-1.54a1.89,1.89,0,0,0-1.57,1.55Z"/><path class="cls-1" d="M38.33,34h.22c.37,0,.5,0,.5-.17V30.27c0-.74-.08-.91-.49-.95l-.27,0v-.05l1.44-.37L39.69,31h0c.32-1.27.85-2.12,1.61-2.12a.57.57,0,0,1,.63.55.51.51,0,0,1-.49.53c-.26,0-.5-.23-.53-.69-.57.12-.84.64-1.2,2v2.62c0,.1,0,.14.52.15h.4l0,.07H38.3Z"/><path class="cls-1" d="M42.27,36.66a.48.48,0,0,1,.48-.49.58.58,0,0,1,.53.59c.57-.11.79-.63,1.21-1.9l.24-.73v0L43,29.85c-.25-.66-.3-.73-.67-.76h-.23L42,29h2.24v.07H44c-.45,0-.5.18-.33.64l1.39,3.42,1-2.71c.4-1.13.34-1.27-.47-1.35H45.5l0-.07h2l0,.07h-.14c-.55,0-.61.23-1.09,1.49l-1.37,3.58-.32,1c-.42,1.36-.84,2-1.58,2C42.53,37.14,42.27,36.93,42.27,36.66Z"/><path class="cls-1" d="M49.66,34h.22c.37,0,.5,0,.5-.17V30.27c0-.74-.08-.91-.49-.95l-.28,0,0-.05,1.43-.37-.06,1h0a2.88,2.88,0,0,1,1.86-1.07,1.25,1.25,0,0,1,.92.36,1.23,1.23,0,0,1,.32.72h0A2.79,2.79,0,0,1,56,28.84a1.18,1.18,0,0,1,.92.37,1.54,1.54,0,0,1,.37,1.08v3.54c0,.07,0,.11.6.16h.16l0,.07H55.87l0-.07h.22c.42,0,.49-.07.49-.17V30.44a1,1,0,0,0-1-1.09,1.76,1.76,0,0,0-1.39.68h0v3.79c0,.07,0,.11.6.16h.17l0,.07h-2.2l0-.07H53c.41,0,.48-.07.48-.17V30.44a1,1,0,0,0-1-1.09,2,2,0,0,0-1.42.66v3.83c0,.1.07.11.61.15h.16l0,.07H49.63Z"/><path class="cls-1" d="M58.36,31.56A2.67,2.67,0,0,1,61,28.84a2.6,2.6,0,0,1,2.59,2.65A2.64,2.64,0,0,1,61,34.21,2.6,2.6,0,0,1,58.36,31.56Zm4.4.06a3.14,3.14,0,0,0-.67-2.2A1.55,1.55,0,0,0,61,28.94c-1,0-1.81,1.07-1.81,2.44a3.36,3.36,0,0,0,.74,2.34,1.58,1.58,0,0,0,1.11.42C62,34.14,62.76,33,62.76,31.62Z"/><path class="cls-1" d="M64,34h.22c.37,0,.5,0,.5-.17V30.27c0-.74-.09-.91-.49-.95l-.28,0v-.05l1.44-.37-.06,1h0a2.93,2.93,0,0,1,1.86-1.07,1.28,1.28,0,0,1,.93.36,1.3,1.3,0,0,1,.32.72h0a2.83,2.83,0,0,1,1.87-1.08,1.2,1.2,0,0,1,.93.37,1.54,1.54,0,0,1,.37,1.08v3.54c0,.07,0,.11.6.16h.15l0,.07H70.2l0-.07h.21c.42,0,.5-.07.5-.17V30.44a1,1,0,0,0-1-1.09,1.76,1.76,0,0,0-1.39.68h0v3.79c0,.07,0,.11.6.16h.17l0,.07H67.1l0-.07h.22c.41,0,.48-.07.48-.17V30.44a1,1,0,0,0-1-1.09,2,2,0,0,0-1.42.66v3.83c0,.1.07.11.61.15h.16l0,.07H64Z"/><path class="cls-1" d="M72.69,31.64a2.57,2.57,0,0,1,2.46-2.8A1.68,1.68,0,0,1,77,30.46c0,.06,0,.08,0,.18H73.48a6.47,6.47,0,0,0-.06.66c0,1.44.85,2.46,1.92,2.46a1.81,1.81,0,0,0,1.69-1l.08,0a2.34,2.34,0,0,1-2.06,1.41A2.47,2.47,0,0,1,72.69,31.64Zm3.52-1.14c0-.84-.38-1.54-1.13-1.54a1.9,1.9,0,0,0-1.58,1.55Z"/><path class="cls-1" d="M77.49,34h.21c.38,0,.51,0,.51-.17V30.27c0-.74-.09-.91-.49-.95l-.28,0v-.05l1.44-.37,0,1.08,0,0a3.49,3.49,0,0,1,2.05-1.14,1.12,1.12,0,0,1,.86.33,1.47,1.47,0,0,1,.4,1.12v3.54c0,.07,0,.11.59.16H83l0,.07H80.77l0-.07H81c.42,0,.5-.07.5-.17V30.44a1,1,0,0,0-1-1.09,2.4,2.4,0,0,0-1.6.75v3.74c0,.1.07.11.61.15h.16l0,.07H77.45Z"/><path class="cls-1" d="M84,33.16l.08-3.79h-.92L83.3,29h.81l0-1h.66l0,1H86.4l-.12.36h-1.5L84.7,33a.68.68,0,0,0,.71.81c.47,0,.73-.32,1-.56l.07,0c-.48.48-.85.91-1.49.91A.9.9,0,0,1,84,33.16Z"/><path class="cls-1" d="M88.94,31.56a2.67,2.67,0,0,1,2.61-2.72,2.6,2.6,0,0,1,2.59,2.65,2.63,2.63,0,0,1-2.59,2.72A2.6,2.6,0,0,1,88.94,31.56Zm4.4.06a3.18,3.18,0,0,0-.67-2.2,1.56,1.56,0,0,0-1.14-.48c-1,0-1.81,1.07-1.81,2.44a3.36,3.36,0,0,0,.74,2.34,1.53,1.53,0,0,0,1.1.42C92.55,34.14,93.34,33,93.34,31.62Z"/><path class="cls-1" d="M94.66,34h.2c.36,0,.51,0,.51-.16V29.39h-.82l.11-.37h.7l0-.28c.16-1.82,1.16-2.6,2.05-2.6.41,0,.65.22.65.49a.42.42,0,0,1-.43.4.66.66,0,0,1-.61-.55l0-.09-.16,0c-.63.18-.81,1.07-.81,2.13V29h1.19l-.12.38H96v4.45c0,.1,0,.14.52.15H97l0,.07H94.62Z"/><path class="cls-1" d="M99.83,36.66a.48.48,0,0,1,.48-.49.57.57,0,0,1,.53.59c.58-.11.79-.63,1.21-1.9l.24-.73v0l-1.77-4.26c-.26-.66-.3-.73-.68-.76h-.22l0-.07h2.24v.07h-.2c-.46,0-.51.18-.34.64l1.39,3.42,1-2.71c.4-1.13.34-1.27-.46-1.35h-.17l0-.07h2l0,.07h-.13c-.56,0-.62.23-1.1,1.49l-1.36,3.58-.33,1c-.42,1.36-.84,2-1.58,2C100.1,37.14,99.83,36.93,99.83,36.66Z"/><path class="cls-1" d="M104.74,31.56a2.67,2.67,0,0,1,2.61-2.72,2.61,2.61,0,0,1,2.6,2.65,2.64,2.64,0,0,1-2.6,2.72A2.6,2.6,0,0,1,104.74,31.56Zm4.4.06a3.14,3.14,0,0,0-.67-2.2,1.56,1.56,0,0,0-1.14-.48c-1,0-1.81,1.07-1.81,2.44a3.36,3.36,0,0,0,.74,2.34,1.58,1.58,0,0,0,1.11.42C108.35,34.14,109.14,33,109.14,31.62Z"/><path class="cls-1" d="M114.28,33.14h0a3.48,3.48,0,0,1-2,1.07,1.26,1.26,0,0,1-.94-.32,1.51,1.51,0,0,1-.36-1.1V29.24c0-.07,0-.1-.61-.15h-.17l0-.07h1.47l0,3.62a1,1,0,0,0,1.06,1.11,2.33,2.33,0,0,0,1.55-.71V29.72c0-.51-.11-.59-.6-.63h-.17l0-.07h1.48v4.41c0,.27,0,.4.42.44h.35v.07l-1.44.31Z"/><path class="cls-1" d="M120.81,33.41v0a2.64,2.64,0,0,1-1.55.78,1.08,1.08,0,0,1-1.16-1.08c0-.79.64-1.32,2.79-1.88l0-.71c.06-1.21-.62-1.43-1.14-1.43s-1.09.37-1.09.54.29.22.29.53a.44.44,0,0,1-.45.43.42.42,0,0,1-.46-.46c0-.55,1.29-1.27,2.16-1.27s1.4.34,1.34,1.58l-.12,2.91c0,.38.13.45.37.45a.89.89,0,0,0,.58-.36l.06,0c-.23.25-.52.72-1,.72A.74.74,0,0,1,120.81,33.41Zm0-.17.06-1.91c-1.87.46-2.1,1-2.1,1.58a.78.78,0,0,0,.85.87A1.88,1.88,0,0,0,120.83,33.24Z"/><path class="cls-1" d="M123.09,33.16l.08-3.79h-.92l.12-.36h.81l0-1h.66v1h1.61l-.12.36h-1.49L123.77,33a.68.68,0,0,0,.71.81c.47,0,.73-.32,1-.56l.07,0c-.48.48-.85.91-1.48.91A.91.91,0,0,1,123.09,33.16Z"/><path class="cls-1" d="M128,27.92a2.09,2.09,0,0,1,1.26-1.58l0,0c-.31.27-.89.54-.89,1.24,0,.48.33.64.86.51.16.19,0,.64-.51.64A.76.76,0,0,1,128,27.92Zm1.62,0a2.09,2.09,0,0,1,1.26-1.58l.05,0c-.31.27-.89.54-.89,1.24,0,.48.33.64.85.51.17.19,0,.64-.5.64A.76.76,0,0,1,129.66,27.92Z"/><path class="cls-1" d="M131.39,34l.6,0c.42,0,.58-.11.58-.18V26.84c0-.09-.07-.11-.7-.16l-.47,0,0-.07h3.25c1.69,0,2.61.63,2.61,1.77s-1.11,2.07-2.74,2.07a8.65,8.65,0,0,1-1.14-.09v3.48c0,.08.07.12.69.15l.59,0,0,.07h-3.31Zm5-5.52c0-1.15-.56-1.83-2.12-1.81h-.94v3.49a3.81,3.81,0,0,0,1.14.16A1.69,1.69,0,0,0,136.41,28.48Z"/><path class="cls-1" d="M137.27,31.64a2.57,2.57,0,0,1,2.46-2.8,1.69,1.69,0,0,1,1.85,1.62.82.82,0,0,1,0,.18h-3.49a6.47,6.47,0,0,0-.06.66c0,1.44.85,2.46,1.92,2.46a1.8,1.8,0,0,0,1.69-1l.09,0a2.36,2.36,0,0,1-2.07,1.41A2.48,2.48,0,0,1,137.27,31.64Zm3.53-1.14c0-.84-.39-1.54-1.14-1.54a1.89,1.89,0,0,0-1.57,1.55Z"/><path class="cls-1" d="M142.07,34h.22c.37,0,.5,0,.5-.17V30.27c0-.74-.08-.91-.49-.95l-.28,0,0-.05,1.44-.37,0,2.09h0c.32-1.27.85-2.12,1.61-2.12a.57.57,0,0,1,.63.55.51.51,0,0,1-.49.53c-.26,0-.5-.23-.53-.69-.57.12-.84.64-1.2,2v2.62c0,.1,0,.14.52.15h.39l0,.07H142Z"/><path class="cls-1" d="M145.79,34H146c.37,0,.5,0,.5-.17V27.35c0-.74-.06-.88-.49-.94l-.27,0,0,0,1.41-.34v7.84c0,.1.05.12.6.15h.17l0,.07h-2.2Z"/><path class="cls-1" d="M148.26,31.64a2.57,2.57,0,0,1,2.46-2.8,1.69,1.69,0,0,1,1.85,1.62.82.82,0,0,1,0,.18h-3.48a4.49,4.49,0,0,0-.06.66c0,1.44.85,2.46,1.91,2.46a1.8,1.8,0,0,0,1.69-1l.09,0a2.34,2.34,0,0,1-2.06,1.41A2.48,2.48,0,0,1,148.26,31.64Zm3.53-1.14c0-.84-.38-1.54-1.14-1.54a1.89,1.89,0,0,0-1.57,1.55Z"/><path class="cls-1" d="M153.06,34h.22c.37,0,.5,0,.5-.17V30.27c0-.74-.08-.91-.49-.95l-.27,0v-.05l1.44-.37,0,1.08,0,0a3.46,3.46,0,0,1,2-1.14,1.12,1.12,0,0,1,.86.33,1.51,1.51,0,0,1,.4,1.12v3.54c0,.07,0,.11.58.16h.18l0,.07h-2.22l0-.07h.21c.42,0,.51-.07.51-.17V30.44a1,1,0,0,0-1.06-1.09,2.36,2.36,0,0,0-1.59.75v3.74c0,.1.07.11.61.15h.15l.05.07H153Z"/><path class="cls-1" d="M158.85,28.77c.31-.24.89-.52.89-1.21,0-.48-.33-.65-.86-.52-.14-.19.08-.66.51-.66a.79.79,0,0,1,.77.89,2.08,2.08,0,0,1-1.26,1.56Zm1.62,0c.31-.24.88-.52.88-1.21,0-.48-.32-.65-.82-.52-.17-.19,0-.66.48-.66a.79.79,0,0,1,.76.89,2.08,2.08,0,0,1-1.26,1.56Z"/><path class="cls-1" d="M165.09,29.9c-.24-.71-.29-.78-.67-.81h-.22V29h2.25l-.05.07h-.18c-.48,0-.56.17-.38.63l1.27,3.4,1.19-2.79-.19-.5c-.25-.65-.33-.7-.71-.74h-.22l0-.07h2.25l0,.07h-.21c-.46,0-.5.17-.33.63l1.44,3.44.9-2.69c.37-1.11.36-1.3-.46-1.38h-.14l0-.07h1.92l0,.07h0c-.56.06-.69.23-1.12,1.53L170,34.19H170l-1.6-3.72-1.58,3.72h-.09Z"/><path class="cls-1" d="M172.47,34h.21c.38,0,.51,0,.51-.17V30.25c0-.72-.09-.89-.49-.93l-.28,0v-.05l1.43-.37v5c0,.1.07.11.6.15h.17l0,.07h-2.23Zm.43-6.8a.53.53,0,0,1,.52-.53.52.52,0,0,1,0,1A.52.52,0,0,1,172.9,27.2Z"/><path class="cls-1" d="M174.87,34h.2c.37,0,.51,0,.51-.17V27.35c0-.74-.06-.88-.5-.94l-.26,0v0l1.42-.34v7.84c0,.1,0,.12.6.15H177l0,.07h-2.21Z"/><path class="cls-1" d="M177.38,34h.2c.37,0,.5,0,.5-.17V27.35c0-.74-.06-.88-.49-.94l-.26,0v0l1.41-.34v7.84c0,.1.05.12.6.15h.17l0,.07h-2.21Z"/><path class="cls-1" d="M182.33,27.24c0-.63-.07-.8-.49-.83l-.28,0,0-.07L183,26v3.94l0,0a2.63,2.63,0,0,1,1.89-1.06A2.25,2.25,0,0,1,187,31.37a2.73,2.73,0,0,1-2.48,2.84,3.05,3.05,0,0,1-1.69-.49h0l-.45.57h-.07Zm3.93,4.42c0-1.32-.7-2.34-1.76-2.34a2.07,2.07,0,0,0-1.51.79v3a1.88,1.88,0,0,0,1.58,1C185.59,34.1,186.26,33.1,186.26,31.66Z"/><path class="cls-1" d="M187.49,31.64a2.57,2.57,0,0,1,2.46-2.8,1.69,1.69,0,0,1,1.85,1.62c0,.06,0,.08,0,.18h-3.49a6.47,6.47,0,0,0-.06.66c0,1.44.85,2.46,1.92,2.46a1.8,1.8,0,0,0,1.69-1l.09,0a2.36,2.36,0,0,1-2.07,1.41A2.48,2.48,0,0,1,187.49,31.64ZM191,30.5c0-.84-.39-1.54-1.14-1.54a1.89,1.89,0,0,0-1.57,1.55Z"/><path class="cls-1" d="M.05,50H.26c.36,0,.51,0,.51-.15V43.25c0-.72-.07-.89-.49-.93l-.28,0v0l1.44-.37v1.05l0,0A2.57,2.57,0,0,1,3.33,41.9a2.25,2.25,0,0,1,2.14,2.47A2.73,2.73,0,0,1,3,47.21a3.59,3.59,0,0,1-1.54-.37h0v3c0,.08.06.12.6.13h.41l0,.08H0Zm4.64-5.37c0-1.32-.67-2.35-1.75-2.35a2,2,0,0,0-1.5.8v3.11A1.89,1.89,0,0,0,3,47.1C4.05,47.1,4.69,46.1,4.69,44.66Z"/><path class="cls-1" d="M5.89,47h.22c.37,0,.5,0,.5-.17V43.27c0-.74-.08-.91-.49-1l-.28,0,0,0,1.43-.37,0,2.09h0c.32-1.27.85-2.12,1.61-2.12a.57.57,0,0,1,.63.55.51.51,0,0,1-.49.53c-.26,0-.5-.23-.53-.69-.57.12-.84.64-1.2,2v2.62c0,.1,0,.14.52.15h.39l0,.07H5.86Z"/><path class="cls-1" d="M9.64,44.64a2.57,2.57,0,0,1,2.45-2.8,1.69,1.69,0,0,1,1.85,1.62c0,.06,0,.08,0,.18H10.43a4.49,4.49,0,0,0-.06.66c0,1.44.85,2.46,1.92,2.46a1.81,1.81,0,0,0,1.69-1l.08,0A2.34,2.34,0,0,1,12,47.21,2.47,2.47,0,0,1,9.64,44.64Zm3.52-1.14c0-.84-.38-1.54-1.14-1.54a1.89,1.89,0,0,0-1.57,1.55Z"/><path class="cls-1" d="M14.66,46.94l-.15-1.32h.07l.25.54a1.61,1.61,0,0,0,1.37,1A1.11,1.11,0,0,0,17.42,46c0-.71-.49-1.05-1.39-1.32-.61-.2-1.34-.59-1.34-1.41a1.55,1.55,0,0,1,1.6-1.45,2.29,2.29,0,0,1,1,.24L17.7,42l.06,1.21h-.09l-.55-.92a1.36,1.36,0,0,0-.83-.31.93.93,0,0,0-1,1c0,.66.49.9,1.2,1.15S18,44.58,18,45.64a1.72,1.72,0,0,1-1.87,1.57A3.75,3.75,0,0,1,14.66,46.94Z"/><path class="cls-1" d="M18.53,44.64A2.57,2.57,0,0,1,21,41.84a1.68,1.68,0,0,1,1.84,1.62c0,.06,0,.08,0,.18H19.32a6.47,6.47,0,0,0-.06.66c0,1.44.85,2.46,1.92,2.46a1.81,1.81,0,0,0,1.69-1l.08,0a2.34,2.34,0,0,1-2.06,1.41A2.47,2.47,0,0,1,18.53,44.64Zm3.52-1.14c0-.84-.38-1.54-1.14-1.54a1.89,1.89,0,0,0-1.57,1.55Z"/><path class="cls-1" d="M23.33,47h.21c.38,0,.51,0,.51-.17V43.27c0-.74-.09-.91-.49-1l-.28,0v0l1.44-.37L24.68,44h0c.33-1.27.86-2.12,1.61-2.12a.58.58,0,0,1,.64.55.51.51,0,0,1-.49.53c-.27,0-.51-.23-.53-.69-.58.12-.84.64-1.2,2v2.62c0,.1,0,.14.51.15h.4l0,.07H23.29Z"/><path class="cls-1" d="M28,42.85c-.26-.66-.3-.73-.67-.76h-.23L27,42h2.26l0,.07h-.2c-.45,0-.51.18-.35.64l1.36,3.39,1-2.66c.43-1.15.43-1.32-.37-1.37h-.17l0-.07h1.94l0,.07h-.07c-.55,0-.65.23-1.17,1.49l-1.42,3.61h-.08Z"/><path class="cls-1" d="M32.34,44.64a2.57,2.57,0,0,1,2.46-2.8,1.69,1.69,0,0,1,1.85,1.62c0,.06,0,.08,0,.18H33.13a6.47,6.47,0,0,0-.06.66c0,1.44.85,2.46,1.92,2.46a1.8,1.8,0,0,0,1.69-1l.09,0a2.36,2.36,0,0,1-2.07,1.41A2.48,2.48,0,0,1,32.34,44.64Zm3.53-1.14c0-.84-.39-1.54-1.14-1.54a1.89,1.89,0,0,0-1.57,1.55Z"/><path class="cls-1" d="M41.21,40.24c0-.63-.06-.81-.48-.83l-.4,0v-.07L41.88,39v7.47c0,.26,0,.39.4.43l.36,0V47l-1.41.27v-1h0a2.62,2.62,0,0,1-1.87,1,2.29,2.29,0,0,1-2.13-2.54,2.69,2.69,0,0,1,2.61-2.77,2.65,2.65,0,0,1,1.42.4Zm0,5.76V43a1.86,1.86,0,0,0-1.56-1c-1,0-1.69.94-1.69,2.36s.69,2.43,1.75,2.43A2,2,0,0,0,41.21,46Z"/><path class="cls-1" d="M44.93,47h.21c.38,0,.51,0,.51-.17V43.25c0-.72-.09-.89-.49-.93l-.28,0v0l1.43-.37v5c0,.1.07.11.6.15h.17l0,.07H44.89Zm.43-6.8a.53.53,0,0,1,.51-.53.52.52,0,0,1,0,1A.51.51,0,0,1,45.36,40.2Z"/><path class="cls-1" d="M47.38,47h.21c.37,0,.51,0,.51-.17V43.27c0-.74-.09-.91-.5-1l-.27,0v0l1.44-.37,0,1.08,0,0a3.49,3.49,0,0,1,2-1.14,1.12,1.12,0,0,1,.86.33,1.51,1.51,0,0,1,.4,1.12v3.54c0,.07,0,.11.58.16h.18l0,.07H50.66l0-.07h.21c.42,0,.51-.07.51-.17V43.44a1,1,0,0,0-1.06-1.09,2.36,2.36,0,0,0-1.59.75v3.74c0,.1.07.11.61.15h.15l0,.07H47.34Z"/><path class="cls-1" d="M55.31,44.56a2.67,2.67,0,0,1,2.61-2.72,2.6,2.6,0,0,1,2.59,2.65,2.63,2.63,0,0,1-2.59,2.72A2.6,2.6,0,0,1,55.31,44.56Zm4.4.06a3.18,3.18,0,0,0-.67-2.2,1.56,1.56,0,0,0-1.14-.48c-1,0-1.81,1.07-1.81,2.44a3.36,3.36,0,0,0,.74,2.34,1.53,1.53,0,0,0,1.1.42C58.92,47.14,59.71,46,59.71,44.62Z"/><path class="cls-1" d="M64.84,46.14h0a3.42,3.42,0,0,1-2,1.07,1.25,1.25,0,0,1-.94-.32,1.51,1.51,0,0,1-.36-1.1V42.24c0-.07,0-.1-.61-.15h-.17l0-.07h1.47v3.62a1,1,0,0,0,1.07,1.11A2.33,2.33,0,0,0,64.8,46V42.72c0-.51-.11-.59-.6-.63H64L64,42h1.49v4.41c0,.27,0,.4.42.44h.35v.07l-1.44.31Z"/><path class="cls-1" d="M66.37,47h.22c.37,0,.5,0,.5-.17V43.27c0-.74-.08-.91-.49-1l-.28,0v0l1.44-.37,0,2.09h0c.32-1.27.85-2.12,1.6-2.12a.58.58,0,0,1,.64.55.51.51,0,0,1-.49.53c-.26,0-.5-.23-.53-.69-.57.12-.84.64-1.2,2v2.62c0,.1,0,.14.52.15h.39l0,.07H66.33Z"/><path class="cls-1" d="M72.51,44.64a2.68,2.68,0,0,1,2.64-2.8c1,0,1.66.48,1.66,1.11a.53.53,0,0,1-.48.52.43.43,0,0,1-.47-.43c0-.37.24-.45.24-.55s-.42-.55-1-.55a2.15,2.15,0,0,0-1.89,2.34c0,1.44.85,2.47,1.92,2.47a1.75,1.75,0,0,0,1.66-1l.11,0a2.35,2.35,0,0,1-2.07,1.41A2.48,2.48,0,0,1,72.51,44.64Z"/><path class="cls-1" d="M77.3,44.56a2.68,2.68,0,0,1,2.62-2.72,2.6,2.6,0,0,1,2.59,2.65,2.64,2.64,0,0,1-2.59,2.72A2.6,2.6,0,0,1,77.3,44.56Zm4.4.06a3.14,3.14,0,0,0-.67-2.2,1.55,1.55,0,0,0-1.14-.48c-1,0-1.81,1.07-1.81,2.44a3.37,3.37,0,0,0,.75,2.34,1.53,1.53,0,0,0,1.1.42C80.91,47.14,81.7,46,81.7,44.62Z"/><path class="cls-1" d="M83,47h.22c.36,0,.5,0,.5-.17V42.39h-.81L83,42h.69l0-.16C83.91,40,84.9,39.24,86,39.24c.66,0,.88.26.88.58a.41.41,0,0,1-.42.39.6.6,0,0,1-.52-.69l-.36-.14c-.89.17-1.19.95-1.19,2.21V42h2.3v-.23c.17-1.84,1.17-2.65,2.06-2.65.41,0,.65.22.65.49A.44.44,0,0,1,89,40a.65.65,0,0,1-.61-.55l0-.09-.18,0c-.62.28-.81,1.07-.81,2.13V42h1.21l-.12.38H87.37v4.45c0,.1,0,.14.53.15h.38l0,.07H86L86,47h.22c.36,0,.49,0,.49-.17V42.38h-2.3v4.46c0,.1,0,.14.51.15h.4l0,.07H83Z"/><path class="cls-1" d="M88.82,44.64a2.57,2.57,0,0,1,2.46-2.8,1.69,1.69,0,0,1,1.85,1.62.82.82,0,0,1,0,.18H89.61a6.47,6.47,0,0,0-.06.66c0,1.44.86,2.46,1.92,2.46a1.8,1.8,0,0,0,1.69-1l.09,0a2.36,2.36,0,0,1-2.06,1.41A2.48,2.48,0,0,1,88.82,44.64Zm3.53-1.14c0-.84-.39-1.54-1.14-1.54a1.89,1.89,0,0,0-1.57,1.55Z"/><path class="cls-1" d="M93.66,44.64a2.57,2.57,0,0,1,2.46-2.8A1.68,1.68,0,0,1,98,43.46c0,.06,0,.08,0,.18H94.45a6.47,6.47,0,0,0-.06.66c0,1.44.85,2.46,1.92,2.46a1.81,1.81,0,0,0,1.69-1l.08,0A2.34,2.34,0,0,1,96,47.21,2.47,2.47,0,0,1,93.66,44.64Zm3.52-1.14c0-.84-.38-1.54-1.13-1.54a1.9,1.9,0,0,0-1.58,1.55Z"/><path class="cls-1" d="M104.68,40.24c0-.63-.06-.81-.48-.83l-.39,0v-.07l1.54-.33v7.47c0,.26,0,.39.4.43l.36,0V47l-1.41.27,0-1h0a2.62,2.62,0,0,1-1.87,1,2.3,2.3,0,0,1-2.14-2.54,2.7,2.7,0,0,1,2.62-2.77,2.58,2.58,0,0,1,1.41.4Zm0,5.76V43a1.83,1.83,0,0,0-1.56-1c-1,0-1.69.94-1.69,2.36s.7,2.43,1.75,2.43A2,2,0,0,0,104.68,46Z"/><path class="cls-1" d="M106.25,47h.21c.37,0,.51,0,.51-.17V43.27c0-.74-.09-.91-.5-1l-.27,0v0l1.44-.37L107.6,44h0c.33-1.27.85-2.12,1.61-2.12a.58.58,0,0,1,.64.55.51.51,0,0,1-.5.53c-.26,0-.5-.23-.52-.69-.58.12-.84.64-1.2,2v2.62c0,.1,0,.14.51.15h.4l0,.07h-2.37Z"/><path class="cls-1" d="M110,44.56a2.67,2.67,0,0,1,2.61-2.72,2.61,2.61,0,0,1,2.6,2.65,2.64,2.64,0,0,1-2.6,2.72A2.6,2.6,0,0,1,110,44.56Zm4.4.06a3.14,3.14,0,0,0-.67-2.2,1.56,1.56,0,0,0-1.14-.48c-1,0-1.81,1.07-1.81,2.44a3.36,3.36,0,0,0,.74,2.34,1.58,1.58,0,0,0,1.11.42C113.6,47.14,114.39,46,114.39,44.62Z"/><path class="cls-1" d="M115.43,50h.21c.36,0,.51,0,.51-.15V43.25c0-.72-.08-.89-.5-.93l-.27,0v0l1.44-.37v1.05l0,0a2.57,2.57,0,0,1,1.87-1.06,2.25,2.25,0,0,1,2.14,2.47,2.73,2.73,0,0,1-2.49,2.84,3.58,3.58,0,0,1-1.53-.37h0v3c0,.08.06.12.6.13h.41l0,.08h-2.47Zm4.64-5.37c0-1.32-.67-2.35-1.75-2.35a2,2,0,0,0-1.5.8v3.11a1.89,1.89,0,0,0,1.58.88C119.43,47.1,120.07,46.1,120.07,44.66Z"/><path class="cls-1" d="M121.5,46.94l-.16-1.32h.07l.26.54a1.58,1.58,0,0,0,1.36,1A1.12,1.12,0,0,0,124.26,46c0-.71-.5-1.05-1.39-1.32-.62-.2-1.35-.59-1.35-1.41a1.56,1.56,0,0,1,1.61-1.45,2.32,2.32,0,0,1,1,.24l.38-.13.06,1.21h-.08l-.55-.92a1.41,1.41,0,0,0-.83-.31.93.93,0,0,0-1.06,1c0,.66.5.9,1.2,1.15s1.57.53,1.57,1.59A1.71,1.71,0,0,1,123,47.21,3.67,3.67,0,0,1,121.5,46.94Z"/><path class="cls-1" d="M130.33,46.41v0a2.62,2.62,0,0,1-1.55.78,1.08,1.08,0,0,1-1.16-1.08c0-.79.65-1.32,2.79-1.88l0-.71c.06-1.21-.63-1.43-1.14-1.43s-1.09.37-1.09.54.28.22.28.53a.44.44,0,0,1-.45.43.42.42,0,0,1-.46-.46c0-.55,1.3-1.27,2.16-1.27s1.4.34,1.34,1.58L131,46.33c0,.38.14.45.38.45a.89.89,0,0,0,.57-.36l.06,0c-.23.25-.51.72-1,.72A.74.74,0,0,1,130.33,46.41Zm0-.17.06-1.91c-1.87.46-2.1,1-2.1,1.58a.78.78,0,0,0,.86.87A1.88,1.88,0,0,0,130.35,46.24Z"/><path class="cls-1" d="M132.06,47h.21c.38,0,.51,0,.51-.17V43.27c0-.74-.09-.91-.49-1l-.28,0v0l1.44-.37,0,1.08,0,0a3.49,3.49,0,0,1,2.05-1.14,1.12,1.12,0,0,1,.86.33,1.47,1.47,0,0,1,.4,1.12v3.54c0,.07,0,.11.59.16h.18l0,.07h-2.22l0-.07h.22c.42,0,.5-.07.5-.17V43.44A1,1,0,0,0,135,42.35a2.4,2.4,0,0,0-1.59.75v3.74c0,.1.07.11.61.15h.16l0,.07H132Z"/><path class="cls-1" d="M141.86,40.24c0-.63-.06-.81-.48-.83l-.4,0,0-.07,1.53-.33v7.47c0,.26.05.39.41.43l.36,0V47l-1.42.27v-1h0a2.64,2.64,0,0,1-1.88,1,2.3,2.3,0,0,1-2.13-2.54,2.69,2.69,0,0,1,2.61-2.77,2.62,2.62,0,0,1,1.42.4Zm0,5.76V43a1.86,1.86,0,0,0-1.56-1c-1,0-1.69.94-1.69,2.36s.7,2.43,1.75,2.43A2,2,0,0,0,141.86,46Z"/><path class="cls-1" d="M145.62,44.64a2.68,2.68,0,0,1,2.64-2.8c1,0,1.65.48,1.65,1.11a.53.53,0,0,1-.48.52A.44.44,0,0,1,149,43c0-.37.24-.45.24-.55s-.42-.55-1-.55a2.15,2.15,0,0,0-1.89,2.34c0,1.44.85,2.47,1.92,2.47a1.76,1.76,0,0,0,1.67-1l.1,0A2.34,2.34,0,0,1,148,47.21,2.47,2.47,0,0,1,145.62,44.64Z"/><path class="cls-1" d="M153.21,46.41v0a2.62,2.62,0,0,1-1.54.78,1.09,1.09,0,0,1-1.17-1.08c0-.79.65-1.32,2.8-1.88l0-.71c.06-1.21-.62-1.43-1.14-1.43s-1.09.37-1.09.54.29.22.29.53a.45.45,0,0,1-.46.43.42.42,0,0,1-.45-.46c0-.55,1.29-1.27,2.15-1.27s1.41.34,1.35,1.58l-.12,2.91c0,.38.13.45.37.45a.91.91,0,0,0,.58-.36l0,0c-.22.25-.51.72-1,.72A.74.74,0,0,1,153.21,46.41Zm0-.17.06-1.91c-1.88.46-2.1,1-2.1,1.58a.78.78,0,0,0,.85.87A1.91,1.91,0,0,0,153.24,46.24Z"/><path class="cls-1" d="M154.94,47h.22c.37,0,.5,0,.5-.17V43.27c0-.74-.08-.91-.49-1l-.28,0,0,0,1.43-.37,0,2.09h0c.32-1.27.85-2.12,1.61-2.12a.57.57,0,0,1,.63.55.51.51,0,0,1-.49.53c-.26,0-.5-.23-.53-.69-.57.12-.84.64-1.2,2v2.62c0,.1,0,.14.52.15h.39l0,.07h-2.37Z"/><path class="cls-1" d="M158.69,44.64a2.57,2.57,0,0,1,2.45-2.8A1.69,1.69,0,0,1,163,43.46c0,.06,0,.08,0,.18h-3.49a4.49,4.49,0,0,0-.06.66c0,1.44.85,2.46,1.92,2.46a1.81,1.81,0,0,0,1.69-1l.08,0a2.34,2.34,0,0,1-2.06,1.41A2.47,2.47,0,0,1,158.69,44.64Zm3.52-1.14c0-.84-.38-1.54-1.14-1.54a1.89,1.89,0,0,0-1.57,1.55Z"/><path class="cls-1" d="M163.58,47h.21c.36,0,.5,0,.5-.16V42.39h-.82l.11-.37h.7l0-.28c.16-1.82,1.16-2.6,2-2.6.41,0,.65.22.65.49a.42.42,0,0,1-.43.4.66.66,0,0,1-.61-.55l0-.09-.15,0c-.64.18-.82,1.07-.82,2.13V42h1.19l-.12.38H165v4.45c0,.1,0,.14.52.15h.39l0,.07h-2.36Z"/><path class="cls-1" d="M170.4,46.14h0a3.42,3.42,0,0,1-2,1.07,1.25,1.25,0,0,1-.94-.32,1.51,1.51,0,0,1-.36-1.1V42.24c0-.07,0-.1-.61-.15h-.17l0-.07h1.47v3.62a1,1,0,0,0,1.07,1.11,2.33,2.33,0,0,0,1.55-.71V42.72c0-.51-.11-.59-.6-.63h-.17l0-.07H171v4.41c0,.27.05.4.42.44h.35v.07l-1.44.31Z"/><path class="cls-1" d="M171.87,47h.21c.37,0,.5,0,.5-.17V40.35c0-.74-.06-.88-.49-.94l-.26,0v0l1.41-.34v7.84c0,.1.05.12.6.15H174l0,.07h-2.21Z"/><path class="cls-1" d="M174.38,47h.2c.38,0,.51,0,.51-.17V40.35c0-.74-.06-.88-.49-.94l-.27,0,0,0,1.41-.34v7.84c0,.1.05.12.6.15h.17l0,.07h-2.2Z"/><path class="cls-1" d="M176.62,49.66a.49.49,0,0,1,.48-.49.57.57,0,0,1,.53.59c.58-.11.79-.63,1.21-1.9l.24-.73v0l-1.77-4.26c-.25-.66-.3-.73-.67-.76h-.23l0-.07h2.25l0,.07h-.2c-.46,0-.5.18-.34.64l1.4,3.42,1-2.71c.39-1.13.33-1.27-.47-1.35h-.17l0-.07h2l0,.07h-.13c-.55,0-.61.23-1.09,1.49l-1.37,3.58-.32,1c-.42,1.36-.84,2-1.59,2C176.89,50.14,176.62,49.93,176.62,49.66Z"/><path class="cls-1" d="M184.25,46.94l-.16-1.32h.07l.25.54a1.61,1.61,0,0,0,1.37,1A1.11,1.11,0,0,0,187,46c0-.71-.49-1.05-1.39-1.32-.61-.2-1.34-.59-1.34-1.41a1.55,1.55,0,0,1,1.61-1.45,2.35,2.35,0,0,1,1,.24l.38-.13.06,1.21h-.08l-.56-.92a1.35,1.35,0,0,0-.82-.31.93.93,0,0,0-1.06,1c0,.66.49.9,1.2,1.15s1.57.53,1.57,1.59a1.71,1.71,0,0,1-1.87,1.57A3.67,3.67,0,0,1,184.25,46.94Z"/><path class="cls-1" d="M188.11,44.64a2.57,2.57,0,0,1,2.46-2.8,1.68,1.68,0,0,1,1.84,1.62c0,.06,0,.08,0,.18H188.9a6.47,6.47,0,0,0-.06.66c0,1.44.85,2.46,1.92,2.46a1.81,1.81,0,0,0,1.69-1l.08,0a2.34,2.34,0,0,1-2.06,1.41A2.47,2.47,0,0,1,188.11,44.64Zm3.52-1.14c0-.84-.38-1.54-1.13-1.54a1.9,1.9,0,0,0-1.58,1.55Z"/><path class="cls-1" d="M192.91,47h.21c.38,0,.51,0,.51-.17V43.27c0-.74-.09-.91-.49-1l-.28,0v0l1.44-.37L194.26,44h0c.32-1.27.85-2.12,1.6-2.12a.58.58,0,0,1,.64.55.51.51,0,0,1-.49.53c-.27,0-.51-.23-.53-.69-.58.12-.84.64-1.2,2v2.62c0,.1,0,.14.52.15h.39l0,.07h-2.38Z"/><path class="cls-1" d="M197.54,42.85c-.26-.66-.3-.73-.67-.76h-.23l0-.07h2.26l0,.07h-.21c-.45,0-.51.18-.35.64l1.36,3.39,1-2.66c.43-1.15.43-1.32-.37-1.37h-.17l0-.07h1.94l0,.07h-.07c-.55,0-.65.23-1.17,1.49l-1.42,3.61h-.08Z"/><path class="cls-1" d="M201.92,44.64a2.57,2.57,0,0,1,2.46-2.8,1.69,1.69,0,0,1,1.85,1.62c0,.06,0,.08,0,.18h-3.49a6.47,6.47,0,0,0-.06.66c0,1.44.85,2.46,1.92,2.46a1.8,1.8,0,0,0,1.69-1l.09,0a2.36,2.36,0,0,1-2.07,1.41A2.48,2.48,0,0,1,201.92,44.64Zm3.53-1.14c0-.84-.39-1.54-1.14-1.54a1.89,1.89,0,0,0-1.57,1.55Z"/><path class="cls-1" d="M210.79,40.24c0-.63-.06-.81-.48-.83l-.4,0v-.07l1.54-.33v7.47c0,.26,0,.39.41.43l.36,0,0,.08-1.41.27v-1h0a2.62,2.62,0,0,1-1.87,1,2.29,2.29,0,0,1-2.13-2.54,2.69,2.69,0,0,1,2.61-2.77,2.65,2.65,0,0,1,1.42.4Zm0,5.76V43a1.86,1.86,0,0,0-1.56-1c-1,0-1.69.94-1.69,2.36s.69,2.43,1.75,2.43A2,2,0,0,0,210.79,46Z"/><path class="cls-1" d="M212.62,46.7a.55.55,0,0,1,.57-.53.53.53,0,0,1,.53.53.53.53,0,0,1-.53.53A.54.54,0,0,1,212.62,46.7Z"/></g></g></svg>