<svg xmlns="http://www.w3.org/2000/svg" viewBox="0 0 1203.67 398.64"><defs><style>.cls-1{fill:#fff;}</style></defs><g id="레이어_2" data-name="레이어 2"><g id="레이어_1-2" data-name="레이어 1"><path class="cls-1" d="M147.24,106.72l8-.64c5.6-.48,7.68-1.44,7.68-2.4V11.2c0-1.12-1-1.44-9.28-2.08l-6.24-.48-.48-1h43.36c22.56,0,34.88,8.48,34.88,23.68C225.16,48,210.28,59,188.52,59a126,126,0,0,1-15.2-1.28v46.4c0,1.12,1,1.6,9.28,2.08l7.84.48.48,1H146.76Zm66.88-73.6C214.12,17.76,206.76,8.64,186,9l-12.64.16V55.68a55.67,55.67,0,0,0,15.2,2.08C205.32,57.76,214.12,49.12,214.12,33.12Z"/><path class="cls-1" d="M224,75.2c0-20.16,12.8-37.28,32.8-37.28,16,0,24.64,10.72,24.64,21.6a20.07,20.07,0,0,1-.32,2.4l-46.56-.16a74.88,74.88,0,0,0-.8,8.8c0,19.2,11.36,32.8,25.6,32.8,10.4,0,16.48-3.84,22.56-13.12l1.12.48c-6.72,11.36-14.72,18.88-27.52,18.88C238.12,109.6,224,94.08,224,75.2Zm47-15.2c0-11.2-5.12-20.48-15.2-20.48-8.8,0-17.76,8.64-21,20.64Z"/><path class="cls-1" d="M286.44,106.72l2.88-.16c5-.32,6.72-.32,6.72-2.24V57c0-9.92-1.12-12.16-6.56-12.64l-3.68-.48.16-.64,19.2-5-.64,28h.16c4.32-17,11.36-28.32,21.44-28.32,5.6,0,8.48,3.68,8.48,7.36,0,3.36-2.4,7-6.56,7-3.52,0-6.72-3-7-9.28-7.68,1.6-11.2,8.64-16,26.56v35c0,1.28-.16,1.76,6.88,1.92l5.28.16.48,1H286Z"/><path class="cls-1" d="M334.44,106.72l2.72-.16c5-.32,6.72-.32,6.72-2.24V18.08c0-9.92-.8-11.84-6.56-12.64l-3.52-.32.16-.64L352.84,0V104.64c0,1.28.64,1.6,8,1.92l2.24.16.48,1H334.12Z"/><path class="cls-1" d="M365.8,75.2c0-20.16,12.8-37.28,32.8-37.28,16,0,24.64,10.72,24.64,21.6a20.07,20.07,0,0,1-.32,2.4l-46.56-.16a74.88,74.88,0,0,0-.8,8.8c0,19.2,11.36,32.8,25.6,32.8,10.4,0,16.48-3.84,22.56-13.12l1.12.48c-6.72,11.36-14.72,18.88-27.52,18.88C379.88,109.6,365.8,94.08,365.8,75.2Zm47-15.2c0-11.2-5.12-20.48-15.2-20.48-8.8,0-17.76,8.64-21,20.64Z"/><path class="cls-1" d="M428.2,106.72l2.88-.16c5-.32,6.72-.32,6.72-2.24V57c0-9.92-1.12-12.16-6.56-12.64l-3.68-.48.16-.64,19.2-5-.48,14.4.32.48c5.92-5.28,16-15.2,27.36-15.2,4.8,0,8.8,1.44,11.52,4.32,3.36,3.52,5.28,8,5.28,15v47.2c0,1,0,1.44,7.84,2.08l2.4.16.48,1H472l.48-1,2.88-.16c5.6-.32,6.72-1,6.72-2.24V59.2c0-9.44-5.12-14.56-14.08-14.56-7.84,0-15,4.16-21.28,10.08v49.92c0,1.28,1,1.44,8.16,1.92l2.08.16.64,1H427.72Z"/><path class="cls-1" d="M504,122.72c4.16-2.24,11.2-6.88,11.2-15.84,0-6.24-5.12-9.28-10.56-6.24-2.24-4.16.48-9.44,6.56-9.44,5.76,0,10.24,4.64,10.24,11.52,0,8.48-7.52,17.28-16.8,20.8Z"/><path class="cls-1" d="M306.56,392.24a6.45,6.45,0,0,1,6.4-6.56c3.52,0,6.72,3,7,7.84,7.68-1.44,10.56-8.32,16.16-25.28l3.2-9.76v-.32l-23.68-56.8c-3.36-8.8-4-9.76-9-10.08l-3-.16-.48-1h29.92l-.16,1-2.72.16c-6.08.32-6.72,2.4-4.48,8.48l18.56,45.6,13.76-36.16c5.28-15,4.48-17-6.24-17.92l-2.24-.16-.48-1h26.56l-.48,1-1.76.16c-7.36.48-8.16,3-14.56,19.84L340.64,358.8l-4.32,13.6c-5.6,18.08-11.2,26.24-21.12,26.24C310.08,398.64,306.56,395.76,306.56,392.24Z"/><path class="cls-1" d="M370.4,324.24c0-20,15.52-36.32,34.88-36.32,19.2,0,34.56,15.52,34.56,35.36,0,20.48-15.52,36.32-34.56,36.32C385.76,359.6,370.4,344.08,370.4,324.24Zm58.72.8c0-12.16-2.72-23.2-9-29.44a20.66,20.66,0,0,0-15.2-6.4c-13.44,0-24.16,14.24-24.16,32.64,0,13.12,3.52,24.8,9.92,31.2,3.52,3.52,9,5.6,14.72,5.6C418.56,358.64,429.12,343.92,429.12,325Z"/><path class="cls-1" d="M496,345.2h-.16c-6.08,5.12-15.68,14.4-27,14.4-5.76,0-9.28-1.44-12.48-4.32-3.52-3.52-4.8-8.64-4.8-14.72V293.2c0-1,0-1.28-8.16-1.92l-2.24-.16-.48-1h19.68l.16,48.32c0,9.44,5,14.72,14.24,14.72,8,0,14.56-4,20.64-9.44V299.6c0-6.72-1.44-7.84-8-8.32l-2.24-.16-.48-1h19.84V349c0,3.52.64,5.28,5.6,5.76l4.64.16-.16,1-19.2,4.16Z"/><path class="cls-1" d="M514.72,356.72l2.88-.16c5-.32,6.72-.32,6.72-2.24V307c0-9.92-1.12-12.16-6.56-12.64l-3.68-.48.16-.64,19.2-5-.64,28H533c4.32-17,11.36-28.32,21.44-28.32,5.6,0,8.48,3.68,8.48,7.36,0,3.36-2.4,7-6.56,7-3.52,0-6.72-3-7-9.28-7.68,1.6-11.2,8.64-16,26.56v35c0,1.28-.16,1.76,6.88,1.92l5.28.16.48,1H514.24Z"/><path class="cls-1" d="M593.43,325.2c0-21,15-37.28,35.2-37.28,12.8,0,22.08,6.4,22.08,14.72,0,3.84-3.36,7-6.4,7-3.68,0-6.24-2.4-6.24-5.76,0-5,3.2-6.08,3.2-7.36,0-2.08-5.6-7.36-12.8-7.36-13.12,0-25.28,13-25.28,31.2,0,19.2,11.36,33,25.6,33,10.4,0,16.48-3.84,22.25-13.12l1.44.48c-6.56,11.36-14.89,18.88-27.69,18.88C607.51,359.6,593.43,344.08,593.43,325.2Z"/><path class="cls-1" d="M655.67,324.24c0-20,15.52-36.32,34.88-36.32,19.2,0,34.56,15.52,34.56,35.36,0,20.48-15.52,36.32-34.56,36.32C671,359.6,655.67,344.08,655.67,324.24Zm58.72.8c0-12.16-2.72-23.2-9-29.44a20.66,20.66,0,0,0-15.2-6.4c-13.44,0-24.16,14.24-24.16,32.64,0,13.12,3.52,24.8,9.92,31.2,3.52,3.52,9,5.6,14.72,5.6C703.83,358.64,714.39,343.92,714.39,325Z"/><path class="cls-1" d="M730.23,356.72l2.88-.16c4.8-.32,6.72-.32,6.72-2.24v-59L729,295.12l1.44-5h9.28l.32-2.08c2.24-24.48,15.36-34.88,30.4-34.88,8.8,0,11.68,3.52,11.68,7.68a5.5,5.5,0,0,1-5.6,5.28c-3.84,0-7.68-4.64-6.88-9.28l-4.8-1.76c-12,2.24-16,12.64-16,29.44v5.6h30.72v-3c2.24-24.64,15.68-35.36,27.52-35.36,5.44,0,8.64,2.88,8.64,6.56,0,2.72-2.72,5.28-5.76,5.28-3.84,0-7.52-3.36-8.16-7.36l-.16-1.12-2.4-.32c-8.32,3.68-10.88,14.24-10.88,28.48v6.88h16.16l-1.6,5.12H788.31v59.36c0,1.28,0,1.76,7,1.92l5.12.16.64,1H769.59l.48-1,2.88-.16c4.8-.32,6.56-.32,6.56-2.24v-59.2H748.79v59.52c0,1.28-.48,1.76,6.88,1.92l5.28.16.48,1H729.75Z"/><path class="cls-1" d="M806.07,325.2c0-20.16,12.8-37.28,32.8-37.28,16,0,24.64,10.72,24.64,21.6a20.07,20.07,0,0,1-.32,2.4l-46.56-.16a74.88,74.88,0,0,0-.8,8.8c0,19.2,11.36,32.8,25.6,32.8,10.4,0,16.48-3.84,22.56-13.12l1.12.48c-6.72,11.36-14.72,18.88-27.52,18.88C820.15,359.6,806.07,344.08,806.07,325.2Zm47-15.2c0-11.2-5.12-20.48-15.2-20.48-8.8,0-17.76,8.64-21,20.64Z"/><path class="cls-1" d="M869,325.2c0-20.16,12.8-37.28,32.8-37.28,16,0,24.64,10.72,24.64,21.6a20.07,20.07,0,0,1-.32,2.4l-46.56-.16a74.88,74.88,0,0,0-.8,8.8c0,19.2,11.36,32.8,25.6,32.8,10.4,0,16.48-3.84,22.56-13.12l1.12.48c-6.72,11.36-14.72,18.88-27.52,18.88C883,359.6,869,344.08,869,325.2ZM916,310c0-11.2-5.12-20.48-15.2-20.48-8.8,0-17.76,8.64-21,20.64Z"/><path class="cls-1" d="M36.64,219.88v-.32C30.08,225.16,23,230,16,230,6.4,230,.48,223.4.48,215.56.48,205,9.12,198,37.76,190.44l.32-9.44c.8-16.16-8.32-19-15.2-19-7,0-14.56,5-14.56,7.2,0,1.12,3.84,2.88,3.84,7A5.91,5.91,0,0,1,6.08,182C2.56,182,0,180,0,175.88c0-7.36,17.28-17,28.8-17,11.36,0,18.72,4.48,17.92,21.12l-1.6,38.72c-.32,5.12,1.76,6.08,5,6.08,2.56,0,5.28-2.24,7.68-4.8l.8.48c-3,3.36-6.88,9.6-13,9.6C41.12,230.12,36.8,225.8,36.64,219.88Zm.32-2.24.8-25.6c-25,6.24-28,13.28-28,21.12,0,7.36,4,11.68,11.36,11.68C27.2,224.84,33,221.16,37,217.64Z"/><path class="cls-1" d="M85.28,227.72l2.88-.16c5-.32,6.72-.32,6.72-2.24V178c0-9.92-1.12-12.16-6.56-12.64l-3.68-.48.16-.64,19.2-5-.48,14.4.32.48c5.92-5.28,16-15.2,27.36-15.2,4.8,0,8.8,1.44,11.52,4.32,3.36,3.52,5.28,8,5.28,15v47.2c0,1,0,1.44,7.84,2.08l2.4.16.48,1h-29.6l.48-1,2.88-.16c5.6-.32,6.72-1,6.72-2.24V180.2c0-9.44-5.12-14.56-14.08-14.56-7.84,0-15,4.16-21.28,10.08v49.92c0,1.28,1,1.44,8.16,1.92l2.08.16.64,1H84.8Z"/><path class="cls-1" d="M160.64,196.2c0-20.16,12.8-37.28,32.8-37.28,16,0,24.64,10.72,24.64,21.6a20.07,20.07,0,0,1-.32,2.4l-46.56-.16a74.88,74.88,0,0,0-.8,8.8c0,19.2,11.36,32.8,25.6,32.8,10.4,0,16.48-3.84,22.56-13.12l1.12.48C213,223.08,205,230.6,192.16,230.6,174.72,230.6,160.64,215.08,160.64,196.2Zm47-15.2c0-11.2-5.12-20.48-15.2-20.48-8.8,0-17.76,8.64-21,20.64Z"/><path class="cls-1" d="M229.12,173c-3.2-9.44-3.84-10.4-9-10.72l-2.88-.16-.16-1H247.2l-.64,1-2.4.16c-6.4.32-7.52,2.24-5.12,8.32L256,216l15.84-37.28L269.28,172c-3.36-8.64-4.32-9.28-9.44-9.76l-2.88-.16-.64-1H286.4l-.32,1-2.72.16c-6.24.32-6.72,2.24-4.48,8.32l19.2,45.92,12-35.84c5-14.88,4.8-17.44-6.08-18.4l-1.92-.16-.48-1h25.6l-.48,1-.64.16c-7.36.8-9.12,3-14.88,20.32l-16,47.68h-1.12l-21.28-49.6-21.12,49.6h-1.12Z"/><path class="cls-1" d="M365.6,173c-3.2-9.44-3.84-10.4-9-10.72l-2.88-.16-.16-1h30.08l-.64,1-2.4.16c-6.4.32-7.52,2.24-5.12,8.32l17,45.44,15.84-37.28L405.76,172c-3.36-8.64-4.32-9.28-9.44-9.76l-2.88-.16-.64-1h30.08l-.32,1-2.72.16c-6.24.32-6.72,2.24-4.48,8.32l19.2,45.92,12-35.84c5-14.88,4.8-17.44-6.08-18.4l-1.92-.16-.48-1h25.6l-.48,1-.64.16c-7.36.8-9.12,3-14.88,20.32l-16,47.68h-1.12l-21.28-49.6-21.12,49.6H387Z"/><path class="cls-1" d="M498.72,219.88v-.32c-6.56,5.6-13.6,10.4-20.64,10.4-9.6,0-15.52-6.56-15.52-14.4,0-10.56,8.64-17.6,37.28-25.12l.32-9.44c.8-16.16-8.32-19-15.2-19-7,0-14.56,5-14.56,7.2,0,1.12,3.84,2.88,3.84,7a5.91,5.91,0,0,1-6.08,5.76c-3.52,0-6.08-1.92-6.08-6.08,0-7.36,17.28-17,28.8-17,11.36,0,18.72,4.48,17.92,21.12l-1.6,38.72c-.32,5.12,1.76,6.08,5,6.08,2.56,0,5.28-2.24,7.68-4.8l.8.48c-3,3.36-6.88,9.6-13,9.6C503.2,230.12,498.88,225.8,498.72,219.88Zm.32-2.24.8-25.6c-25,6.24-28,13.28-28,21.12,0,7.36,4,11.68,11.36,11.68C489.28,224.84,495,221.16,499,217.64Z"/><path class="cls-1" d="M513.6,263.24a6.45,6.45,0,0,1,6.4-6.56c3.52,0,6.72,3,7,7.84,7.68-1.44,10.56-8.32,16.16-25.28l3.2-9.76v-.32l-23.68-56.8c-3.36-8.8-4-9.76-9-10.08l-3-.16-.48-1h29.92l-.16,1-2.72.16c-6.08.32-6.72,2.4-4.48,8.48l18.56,45.6,13.76-36.16c5.28-15,4.48-17-6.24-17.92l-2.24-.16-.48-1h26.56l-.48,1-1.76.16c-7.36.48-8.16,3-14.56,19.84L547.68,229.8l-4.32,13.6c-5.6,18.08-11.2,26.24-21.12,26.24C517.12,269.64,513.6,266.76,513.6,263.24Z"/><path class="cls-1" d="M609.44,195.24c0-20,15.52-36.32,34.88-36.32,19.2,0,34.56,15.52,34.56,35.36,0,20.48-15.52,36.32-34.56,36.32C624.8,230.6,609.44,215.08,609.44,195.24Zm58.72.8c0-12.16-2.72-23.2-9-29.44a20.66,20.66,0,0,0-15.2-6.4c-13.44,0-24.16,14.24-24.16,32.64,0,13.12,3.52,24.8,9.92,31.2,3.52,3.52,9,5.6,14.72,5.6C657.6,229.64,668.16,214.92,668.16,196Z"/><path class="cls-1" d="M684.15,227.72l2.72-.16c4.8-.32,6.72-.16,6.72-2.08v-59.2l-10.88-.16,1.44-5h9.28l.32-3.68c2.08-24.32,15.52-34.72,27.36-34.72,5.44,0,8.64,2.88,8.64,6.56A5.66,5.66,0,0,1,724,134.6c-4,0-7.36-3.36-8.16-7.36l-.32-1.12-2.08-.32c-8.48,2.4-10.88,14.24-10.88,28.48v6.88h15.84l-1.6,5.12H702.55v59.36c0,1.28-.16,1.76,6.88,1.92l5.28.16.48,1H683.67Z"/><path class="cls-1" d="M750.07,227.72l2.88-.16c5-.32,6.72-.32,6.72-2.24V178c0-9.92-1.12-12.16-6.56-12.64l-3.68-.48.16-.64,19.2-5-.8,13.92h.16c5.28-5.28,14.24-14.24,24.8-14.24,5.44,0,9.6,1.92,12.32,4.8a17.27,17.27,0,0,1,4.32,9.6h.16c5.28-5.6,14.08-14.4,25-14.4,5.6,0,9.12,1.76,12.32,5s5,8.48,5,14.4v47.2c0,1,0,1.44,8,2.08l2.08.16.48,1H833l.48-1,2.88-.16c5.6-.32,6.56-1,6.56-2.24V180.2c0-9.28-4.48-14.56-13.92-14.56-7.36,0-15.36,4-18.56,9.12l-.16.16v50.56c0,1,0,1.44,8,2.08l2.24.16.48,1H791.51l.48-1,2.88-.16c5.44-.32,6.4-1,6.4-2.24V180.2c0-9.28-4.64-14.56-13.76-14.56-7.52,0-13.76,3.68-18.88,8.8v51.2c0,1.28,1,1.44,8.16,1.92l2.08.16.64,1H749.59Z"/><path class="cls-1" d="M864.47,196.2c0-20.16,12.8-37.28,32.8-37.28,16,0,24.64,10.72,24.64,21.6a20.07,20.07,0,0,1-.32,2.4L875,182.76a74.88,74.88,0,0,0-.8,8.8c0,19.2,11.36,32.8,25.6,32.8,10.4,0,16.48-3.84,22.56-13.12l1.12.48c-6.72,11.36-14.72,18.88-27.52,18.88C878.55,230.6,864.47,215.08,864.47,196.2Zm47-15.2c0-11.2-5.12-20.48-15.2-20.48-8.8,0-17.76,8.64-21,20.64Z"/><path class="cls-1" d="M927.35,196.2c0-20.16,12.8-37.28,32.8-37.28,16,0,24.64,10.72,24.64,21.6a20.07,20.07,0,0,1-.32,2.4l-46.56-.16a74.88,74.88,0,0,0-.8,8.8c0,19.2,11.36,32.8,25.6,32.8,10.4,0,16.48-3.84,22.56-13.12l1.12.48c-6.72,11.36-14.72,18.88-27.52,18.88C941.43,230.6,927.35,215.08,927.35,196.2Zm47-15.2c0-11.2-5.12-20.48-15.2-20.48-8.8,0-17.76,8.64-21,20.64Z"/><path class="cls-1" d="M998.71,216.52,999.83,166l-12.32-.16,1.6-4.8H1000l.32-13.76h8.8l-.16,13.92h21.6L1029,166h-20l-1.12,48.8c-.32,8.16,4.64,10.88,9.44,10.88,6.24,0,9.76-4.32,13.76-7.52l1,.32c-6.4,6.4-11.36,12.16-19.84,12.16C1007.19,230.6,998.55,229.16,998.71,216.52Z"/><path class="cls-1" d="M1033.43,227.72l2.88-.16c5-.32,6.72-.32,6.72-2.24V177.64c0-9.6-1.12-11.84-6.56-12.32l-3.68-.48.16-.64,19-5v66.4c0,1.28,1,1.44,8,1.92l2.24.16.48,1H1033Zm5.76-90.72c0-2.72,2.08-7,6.88-7,5,0,6.56,4.32,6.56,7,0,2.56-1.92,6.72-6.56,6.72A6.85,6.85,0,0,1,1039.19,137Z"/><path class="cls-1" d="M1064.47,227.72l2.88-.16c5-.32,6.72-.32,6.72-2.24V178c0-9.92-1.12-12.16-6.56-12.64l-3.68-.48.16-.64,19.2-5-.48,14.4.32.48c5.92-5.28,16-15.2,27.36-15.2,4.8,0,8.8,1.44,11.52,4.32,3.36,3.52,5.28,8,5.28,15v47.2c0,1,0,1.44,7.84,2.08l2.4.16.48,1h-29.6l.48-1,2.88-.16c5.6-.32,6.72-1,6.72-2.24V180.2c0-9.44-5.12-14.56-14.08-14.56-7.84,0-15,4.16-21.28,10.08v49.92c0,1.28,1,1.44,8.16,1.92l2.08.16.64,1H1064Z"/><path class="cls-1" d="M1138.07,250.76c0-9.12,11-17.12,19.2-20.16v-.16c-10.72-.8-17.6-4-17.6-10.4,0-8.16,9.92-14.88,18.88-16.32v-.16c-8.16-2.56-15.2-10.4-15.2-20.32,0-13.92,11.68-24.16,25.92-24.16a27,27,0,0,1,16.32,5.44l18.08-3.2-1,5.6-14.88-.64-.16.32c4,3.68,7.36,9.28,7.36,15.36,0,13.6-11.84,23.52-26.56,23.52a40,40,0,0,1-8.32-1.12c-6.56,1.28-11.68,5.44-11.68,9.92,0,5.28,3.68,7.36,13.6,7.36,4.16,0,12.32-.48,18.08-.48,14.4,0,23.52,6.56,23.52,16.8,0,17.28-16.64,30.56-39.68,30.56C1148.63,268.52,1138.07,261.8,1138.07,250.76Zm60.16-5.92c0-9-6.24-14.4-20.16-14.88a149.25,149.25,0,0,0-18.88,1c-5.44,2.08-14.4,9.28-14.4,18.08,0,9.44,9.92,16.8,25.12,16.8C1184,265.8,1198.23,256.84,1198.23,244.84Zm-12.64-61.6c0-13.92-6.08-22.88-16.48-22.88-8.8,0-16.32,9-16.32,21.28,0,13.44,7,22.56,16.16,22.56C1177.91,204.2,1185.59,195.88,1185.59,183.24Z"/></g></g></svg>