<svg xmlns="http://www.w3.org/2000/svg" viewBox="0 0 1203 148"><defs><style>.cls-1,.cls-2{fill:#fff;}.cls-2{opacity:0;}</style></defs><g id="레이어_2" data-name="레이어 2"><g id="레이어_1-2" data-name="레이어 1"><path class="cls-1" d="M306.11,140.68a6.45,6.45,0,0,1,6.4-6.56c3.52,0,6.72,3,7,7.84,7.68-1.44,10.56-8.32,16.16-25.28l3.2-9.76v-.32L315.23,49.8c-3.36-8.8-4-9.76-9-10.08l-3-.16-.48-1h29.92l-.16,1-2.72.16c-6.08.32-6.72,2.4-4.48,8.48l18.56,45.6,13.76-36.16c5.28-15,4.48-17-6.24-17.92l-2.24-.16-.48-1h26.56l-.48,1-1.76.16c-7.36.48-8.16,3-14.56,19.84l-18.24,47.68-4.32,13.6c-5.6,18.08-11.2,26.24-21.12,26.24C309.63,147.08,306.11,144.2,306.11,140.68Z"/><path class="cls-1" d="M370,72.68c0-20,15.52-36.32,34.88-36.32,19.2,0,34.56,15.52,34.56,35.36,0,20.48-15.52,36.32-34.56,36.32C385.31,108,370,92.52,370,72.68Zm58.72.8c0-12.16-2.72-23.2-9-29.44a20.66,20.66,0,0,0-15.2-6.4c-13.44,0-24.16,14.24-24.16,32.64,0,13.12,3.52,24.8,9.92,31.2,3.52,3.52,9,5.6,14.72,5.6C418.11,107.08,428.67,92.36,428.67,73.48Z"/><path class="cls-1" d="M495.54,93.64h-.16c-6.08,5.12-15.68,14.4-27,14.4-5.76,0-9.28-1.44-12.48-4.32-3.52-3.52-4.8-8.64-4.8-14.72V41.64c0-1,0-1.28-8.16-1.92l-2.24-.16-.48-1h19.68L460,86.92c0,9.44,5,14.72,14.24,14.72,8,0,14.56-4,20.64-9.44V48c0-6.72-1.44-7.84-8-8.32l-2.24-.16-.48-1H504V97.48c0,3.52.64,5.28,5.6,5.76l4.65.16-.17,1-19.2,4.16Z"/><path class="cls-1" d="M514.26,105.16l2.88-.16c5-.32,6.72-.32,6.72-2.24V55.4c0-9.92-1.12-12.16-6.56-12.64l-3.68-.48.16-.64,19.2-5-.64,28h.16c4.32-17,11.36-28.32,21.44-28.32,5.6,0,8.48,3.68,8.48,7.36,0,3.36-2.4,7-6.56,7-3.52,0-6.72-3-7-9.28-7.68,1.6-11.2,8.64-16,26.56v35c0,1.28-.16,1.76,6.88,1.92l5.28.16.48,1H513.78Z"/><path class="cls-1" d="M593,73.64c0-21,15-37.28,35.2-37.28,12.8,0,22.08,6.4,22.08,14.72,0,3.84-3.36,7-6.4,7-3.68,0-6.24-2.4-6.24-5.76,0-5,3.2-6.08,3.2-7.36,0-2.08-5.6-7.36-12.8-7.36-13.12,0-25.28,13-25.28,31.2,0,19.2,11.36,33,25.6,33,10.4,0,16.48-3.84,22.24-13.12l1.44.48C645.46,100.52,637.14,108,624.34,108,607.06,108,593,92.52,593,73.64Z"/><path class="cls-1" d="M655.22,72.68c0-20,15.52-36.32,34.88-36.32,19.2,0,34.56,15.52,34.56,35.36,0,20.48-15.52,36.32-34.56,36.32C670.58,108,655.22,92.52,655.22,72.68Zm58.72.8c0-12.16-2.72-23.2-9-29.44a20.66,20.66,0,0,0-15.2-6.4c-13.44,0-24.16,14.24-24.16,32.64,0,13.12,3.52,24.8,9.92,31.2,3.52,3.52,9,5.6,14.72,5.6C703.38,107.08,713.94,92.36,713.94,73.48Z"/><path class="cls-1" d="M729.77,105.16l2.89-.16c4.8-.32,6.72-.32,6.72-2.24v-59l-10.88-.16,1.43-5h9.28l.33-2.08C741.78,12,754.9,1.63,769.94,1.63c8.8,0,11.68,3.53,11.68,7.69a5.5,5.5,0,0,1-5.6,5.27c-3.84,0-7.68-4.63-6.88-9.28l-4.8-1.76c-12,2.24-16,12.65-16,29.45v5.6h30.73v-3C781.3,10.92,794.74.19,806.58.19c5.44,0,8.64,2.89,8.64,6.56,0,2.72-2.72,5.29-5.76,5.29-3.84,0-7.52-3.37-8.16-7.37l-.16-1.12-2.4-.32c-8.32,3.69-10.88,14.25-10.88,28.49V38.6H804l-1.6,5.12H787.86v59.36c0,1.28,0,1.76,7,1.92l5.12.16.64,1H769.14l.48-1,2.88-.16c4.8-.32,6.56-.32,6.56-2.24V43.56H748.33v59.52c0,1.28-.47,1.76,6.89,1.92l5.28.16.48,1H729.29Z"/><path class="cls-1" d="M805.62,73.64c0-20.16,12.8-37.28,32.8-37.28,16,0,24.64,10.72,24.64,21.6a20.07,20.07,0,0,1-.32,2.4l-46.56-.16a74.88,74.88,0,0,0-.8,8.8c0,19.2,11.36,32.8,25.6,32.8,10.4,0,16.48-3.84,22.56-13.12l1.12.48C857.94,100.52,849.94,108,837.14,108,819.7,108,805.62,92.52,805.62,73.64Zm47-15.2c0-11.2-5.12-20.48-15.2-20.48-8.8,0-17.76,8.64-21,20.64Z"/><path class="cls-1" d="M868.5,73.64c0-20.16,12.8-37.28,32.8-37.28,16,0,24.64,10.72,24.64,21.6a20.07,20.07,0,0,1-.32,2.4l-46.56-.16a74.88,74.88,0,0,0-.8,8.8c0,19.2,11.36,32.8,25.6,32.8,10.4,0,16.48-3.84,22.56-13.12l1.12.48C920.82,100.52,912.82,108,900,108,882.58,108,868.5,92.52,868.5,73.64Zm47-15.2c0-11.2-5.12-20.48-15.2-20.48-8.8,0-17.76,8.64-21,20.64Z"/><rect class="cls-2" width="1203" height="148"/></g></g></svg>