<svg xmlns="http://www.w3.org/2000/svg" viewBox="0 0 1203 124"><defs><style>.cls-1,.cls-2{fill:#fff;}.cls-2{opacity:0;}</style></defs><g id="레이어_2" data-name="레이어 2"><g id="레이어_1-2" data-name="레이어 1"><path class="cls-1" d="M146.79,107.16l8-.64c5.6-.48,7.68-1.44,7.68-2.4V11.63c0-1.12-1-1.43-9.28-2.08L147,9.08l-.48-1h43.36c22.56,0,34.88,8.47,34.88,23.68,0,16.64-14.88,27.68-36.64,27.68a126,126,0,0,1-15.2-1.28v46.4c0,1.12,1,1.6,9.28,2.08l7.84.48.48,1H146.31Zm66.88-73.6c0-15.36-7.36-24.48-28.16-24.17l-12.64.16V56.12a55.67,55.67,0,0,0,15.2,2.08C204.87,58.2,213.67,49.56,213.67,33.56Z"/><path class="cls-1" d="M223.58,75.64c0-20.16,12.81-37.28,32.81-37.28,16,0,24.64,10.72,24.64,21.6a20.07,20.07,0,0,1-.32,2.4l-46.56-.16a74.88,74.88,0,0,0-.8,8.8c0,19.2,11.36,32.8,25.6,32.8,10.4,0,16.48-3.84,22.56-13.12l1.12.48C275.91,102.52,267.91,110,255.11,110,237.67,110,223.58,94.52,223.58,75.64Zm47-15.2c0-11.2-5.12-20.48-15.2-20.48-8.8,0-17.76,8.64-21,20.64Z"/><path class="cls-1" d="M286,107.16l2.88-.16c5-.32,6.72-.32,6.72-2.24V57.4c0-9.92-1.12-12.16-6.56-12.64l-3.68-.48.16-.64,19.21-5-.64,28h.16c4.32-17,11.36-28.32,21.44-28.32,5.6,0,8.48,3.68,8.48,7.36,0,3.36-2.4,7-6.56,7-3.52,0-6.72-3-7-9.28-7.68,1.6-11.2,8.64-16,26.56v35c0,1.28-.16,1.76,6.88,1.92l5.28.16.48,1H285.5Z"/><path class="cls-1" d="M334,107.16l2.72-.16c5-.32,6.72-.32,6.72-2.24V18.52c0-9.93-.8-11.85-6.56-12.64l-3.52-.33.16-.63L352.38.43V105.08c0,1.28.64,1.6,8,1.92l2.23.16.48,1H333.66Z"/><path class="cls-1" d="M365.34,75.64c0-20.16,12.8-37.28,32.8-37.28,16,0,24.64,10.72,24.64,21.6a20.07,20.07,0,0,1-.32,2.4L375.9,62.2a74.88,74.88,0,0,0-.8,8.8c0,19.2,11.36,32.8,25.6,32.8,10.4,0,16.48-3.84,22.56-13.12l1.12.48C417.66,102.52,409.66,110,396.86,110,379.42,110,365.34,94.52,365.34,75.64Zm47-15.2c0-11.2-5.12-20.48-15.2-20.48-8.8,0-17.76,8.64-21,20.64Z"/><path class="cls-1" d="M427.74,107.16l2.88-.16c5-.32,6.72-.32,6.72-2.24V57.4c0-9.92-1.12-12.16-6.56-12.64l-3.68-.48.16-.64,19.2-5L446,53.08l.32.48c5.92-5.28,16-15.2,27.36-15.2,4.8,0,8.8,1.44,11.52,4.32,3.36,3.52,5.28,8,5.28,15v47.2c0,1,0,1.44,7.84,2.08l2.4.16.48,1h-29.6l.48-1,2.88-.16c5.6-.32,6.72-1,6.72-2.24V59.64c0-9.44-5.12-14.56-14.08-14.56-7.84,0-15,4.16-21.28,10.08v49.92c0,1.28,1,1.44,8.16,1.92l2.08.16.64,1H427.26Z"/><path class="cls-1" d="M503.58,123.16c4.16-2.24,11.2-6.88,11.2-15.84,0-6.24-5.12-9.28-10.56-6.24-2.24-4.16.48-9.44,6.56-9.44,5.76,0,10.24,4.64,10.24,11.52,0,8.48-7.52,17.28-16.8,20.8Z"/><rect class="cls-2" width="1203" height="124"/></g></g></svg>