<svg xmlns="http://www.w3.org/2000/svg" viewBox="0 0 1203.67 146.88"><defs><style>.cls-1{fill:#fff;}</style></defs><g id="레이어_2" data-name="레이어 2"><g id="레이어_1-2" data-name="레이어 1"><path class="cls-1" d="M36.64,97.12V96.8C30.08,102.4,23,107.2,16,107.2,6.4,107.2.48,100.64.48,92.8c0-10.56,8.64-17.6,37.28-25.12l.32-9.44c.8-16.16-8.32-19-15.2-19-7,0-14.56,5-14.56,7.2,0,1.12,3.84,2.88,3.84,7A5.91,5.91,0,0,1,6.08,59.2C2.56,59.2,0,57.28,0,53.12c0-7.36,17.28-17,28.8-17,11.36,0,18.72,4.48,17.92,21.12L45.12,96c-.32,5.12,1.76,6.08,5,6.08,2.56,0,5.28-2.24,7.68-4.8l.8.48c-3,3.36-6.88,9.6-13,9.6C41.12,107.36,36.8,103,36.64,97.12ZM37,94.88l.8-25.6c-25,6.24-28,13.28-28,21.12,0,7.36,4,11.68,11.36,11.68C27.2,102.08,33,98.4,37,94.88Z"/><path class="cls-1" d="M85.28,105l2.88-.16c5-.32,6.72-.32,6.72-2.24V55.2c0-9.92-1.12-12.16-6.56-12.64l-3.68-.48.16-.64,19.2-5-.48,14.4.32.48c5.92-5.28,16-15.2,27.36-15.2,4.8,0,8.8,1.44,11.52,4.32,3.36,3.52,5.28,8,5.28,15v47.2c0,1,0,1.44,7.84,2.08l2.4.16.48,1h-29.6l.48-1,2.88-.16c5.6-.32,6.72-1,6.72-2.24V57.44c0-9.44-5.12-14.56-14.08-14.56-7.84,0-15,4.16-21.28,10.08v49.92c0,1.28,1,1.44,8.16,1.92l2.08.16.64,1H84.8Z"/><path class="cls-1" d="M160.64,73.44c0-20.16,12.8-37.28,32.8-37.28,16,0,24.64,10.72,24.64,21.6a20.07,20.07,0,0,1-.32,2.4L171.2,60a74.88,74.88,0,0,0-.8,8.8c0,19.2,11.36,32.8,25.6,32.8,10.4,0,16.48-3.84,22.56-13.12l1.12.48C213,100.32,205,107.84,192.16,107.84,174.72,107.84,160.64,92.32,160.64,73.44Zm47-15.2c0-11.2-5.12-20.48-15.2-20.48-8.8,0-17.76,8.64-21,20.64Z"/><path class="cls-1" d="M229.12,50.24c-3.2-9.44-3.84-10.4-9-10.72l-2.88-.16-.16-1H247.2l-.64,1-2.4.16c-6.4.32-7.52,2.24-5.12,8.32l17,45.44L271.84,56l-2.56-6.72c-3.36-8.64-4.32-9.28-9.44-9.76L257,39.36l-.64-1H286.4l-.32,1-2.72.16c-6.24.32-6.72,2.24-4.48,8.32l19.2,45.92,12-35.84c5-14.88,4.8-17.44-6.08-18.4l-1.92-.16-.48-1h25.6l-.48,1-.64.16c-7.36.8-9.12,3-14.88,20.32l-16,47.68h-1.12L272.8,57.92l-21.12,49.6h-1.12Z"/><path class="cls-1" d="M365.6,50.24c-3.2-9.44-3.84-10.4-9-10.72l-2.88-.16-.16-1h30.08l-.64,1-2.4.16c-6.4.32-7.52,2.24-5.12,8.32l17,45.44L408.32,56l-2.56-6.72c-3.36-8.64-4.32-9.28-9.44-9.76l-2.88-.16-.64-1h30.08l-.32,1-2.72.16c-6.24.32-6.72,2.24-4.48,8.32l19.2,45.92,12-35.84c5-14.88,4.8-17.44-6.08-18.4l-1.92-.16-.48-1h25.6l-.48,1-.64.16c-7.36.8-9.12,3-14.88,20.32l-16,47.68h-1.12l-21.28-49.6-21.12,49.6H387Z"/><path class="cls-1" d="M498.72,97.12V96.8c-6.56,5.6-13.6,10.4-20.64,10.4-9.6,0-15.52-6.56-15.52-14.4,0-10.56,8.64-17.6,37.28-25.12l.32-9.44c.8-16.16-8.32-19-15.2-19-7,0-14.56,5-14.56,7.2,0,1.12,3.84,2.88,3.84,7a5.91,5.91,0,0,1-6.08,5.76c-3.52,0-6.08-1.92-6.08-6.08,0-7.36,17.28-17,28.8-17,11.36,0,18.72,4.48,17.92,21.12L507.2,96c-.32,5.12,1.76,6.08,5,6.08,2.56,0,5.28-2.24,7.68-4.8l.8.48c-3,3.36-6.88,9.6-13,9.6C503.2,107.36,498.88,103,498.72,97.12Zm.32-2.24.8-25.6c-25,6.24-28,13.28-28,21.12,0,7.36,4,11.68,11.36,11.68C489.28,102.08,495,98.4,499,94.88Z"/><path class="cls-1" d="M513.6,140.48a6.45,6.45,0,0,1,6.4-6.56c3.52,0,6.72,3,7,7.84,7.68-1.44,10.56-8.32,16.16-25.28l3.2-9.76v-.32L522.72,49.6c-3.36-8.8-4-9.76-9-10.08l-3-.16-.48-1h29.92l-.16,1-2.72.16c-6.08.32-6.72,2.4-4.48,8.48l18.56,45.6,13.76-36.16c5.28-15,4.48-17-6.24-17.92l-2.24-.16-.48-1h26.56l-.48,1-1.76.16c-7.36.48-8.16,3-14.56,19.84L547.68,107l-4.32,13.6c-5.6,18.08-11.2,26.24-21.12,26.24C517.12,146.88,513.6,144,513.6,140.48Z"/><path class="cls-1" d="M609.44,72.48c0-20,15.52-36.32,34.88-36.32,19.2,0,34.56,15.52,34.56,35.36,0,20.48-15.52,36.32-34.56,36.32C624.8,107.84,609.44,92.32,609.44,72.48Zm58.72.8c0-12.16-2.72-23.2-9-29.44a20.66,20.66,0,0,0-15.2-6.4c-13.44,0-24.16,14.24-24.16,32.64,0,13.12,3.52,24.8,9.92,31.2,3.52,3.52,9,5.6,14.72,5.6C657.6,106.88,668.16,92.16,668.16,73.28Z"/><path class="cls-1" d="M684.15,105l2.72-.16c4.8-.32,6.72-.16,6.72-2.08V43.52l-10.88-.16,1.44-5h9.28l.32-3.68C695.83,10.4,709.27,0,721.11,0c5.44,0,8.64,2.88,8.64,6.56A5.66,5.66,0,0,1,724,11.84c-4,0-7.36-3.36-8.16-7.36l-.32-1.12L713.43,3c-8.48,2.4-10.88,14.24-10.88,28.48V38.4h15.84l-1.6,5.12H702.55v59.36c0,1.28-.16,1.76,6.88,1.92l5.28.16.48,1H683.67Z"/><path class="cls-1" d="M750.07,105l2.88-.16c5-.32,6.72-.32,6.72-2.24V55.2c0-9.92-1.12-12.16-6.56-12.64l-3.68-.48.16-.64,19.2-5L768,50.4h.16c5.28-5.28,14.24-14.24,24.8-14.24,5.44,0,9.6,1.92,12.32,4.8a17.27,17.27,0,0,1,4.32,9.6h.16c5.28-5.6,14.08-14.4,25-14.4,5.6,0,9.12,1.76,12.32,5s5,8.48,5,14.4v47.2c0,1,0,1.44,8,2.08l2.08.16.48,1H833l.48-1,2.88-.16c5.6-.32,6.56-1,6.56-2.24V57.44c0-9.28-4.48-14.56-13.92-14.56-7.36,0-15.36,4-18.56,9.12l-.16.16v50.56c0,1,0,1.44,8,2.08l2.24.16.48,1H791.51l.48-1,2.88-.16c5.44-.32,6.4-1,6.4-2.24V57.44c0-9.28-4.64-14.56-13.76-14.56-7.52,0-13.76,3.68-18.88,8.8v51.2c0,1.28,1,1.44,8.16,1.92l2.08.16.64,1H749.59Z"/><path class="cls-1" d="M864.47,73.44c0-20.16,12.8-37.28,32.8-37.28,16,0,24.64,10.72,24.64,21.6a20.07,20.07,0,0,1-.32,2.4L875,60a74.88,74.88,0,0,0-.8,8.8c0,19.2,11.36,32.8,25.6,32.8,10.4,0,16.48-3.84,22.56-13.12l1.12.48c-6.72,11.36-14.72,18.88-27.52,18.88C878.55,107.84,864.47,92.32,864.47,73.44Zm47-15.2c0-11.2-5.12-20.48-15.2-20.48-8.8,0-17.76,8.64-21,20.64Z"/><path class="cls-1" d="M927.35,73.44c0-20.16,12.8-37.28,32.8-37.28,16,0,24.64,10.72,24.64,21.6a20.07,20.07,0,0,1-.32,2.4L937.91,60a74.88,74.88,0,0,0-.8,8.8c0,19.2,11.36,32.8,25.6,32.8,10.4,0,16.48-3.84,22.56-13.12l1.12.48c-6.72,11.36-14.72,18.88-27.52,18.88C941.43,107.84,927.35,92.32,927.35,73.44Zm47-15.2c0-11.2-5.12-20.48-15.2-20.48-8.8,0-17.76,8.64-21,20.64Z"/><path class="cls-1" d="M998.71,93.76l1.12-50.56L987.51,43l1.6-4.8H1000l.32-13.76h8.8L1009,38.4h21.6l-1.6,4.8h-20L1007.83,92c-.32,8.16,4.64,10.88,9.44,10.88,6.24,0,9.76-4.32,13.76-7.52l1,.32c-6.4,6.4-11.36,12.16-19.84,12.16C1007.19,107.84,998.55,106.4,998.71,93.76Z"/><path class="cls-1" d="M1033.43,105l2.88-.16c5-.32,6.72-.32,6.72-2.24V54.88c0-9.6-1.12-11.84-6.56-12.32l-3.68-.48.16-.64,19-5v66.4c0,1.28,1,1.44,8,1.92l2.24.16.48,1H1033Zm5.76-90.72c0-2.72,2.08-7,6.88-7,5,0,6.56,4.32,6.56,7,0,2.56-1.92,6.72-6.56,6.72A6.85,6.85,0,0,1,1039.19,14.24Z"/><path class="cls-1" d="M1064.47,105l2.88-.16c5-.32,6.72-.32,6.72-2.24V55.2c0-9.92-1.12-12.16-6.56-12.64l-3.68-.48.16-.64,19.2-5-.48,14.4.32.48c5.92-5.28,16-15.2,27.36-15.2,4.8,0,8.8,1.44,11.52,4.32,3.36,3.52,5.28,8,5.28,15v47.2c0,1,0,1.44,7.84,2.08l2.4.16.48,1h-29.6l.48-1,2.88-.16c5.6-.32,6.72-1,6.72-2.24V57.44c0-9.44-5.12-14.56-14.08-14.56-7.84,0-15,4.16-21.28,10.08v49.92c0,1.28,1,1.44,8.16,1.92l2.08.16.64,1H1064Z"/><path class="cls-1" d="M1138.07,128c0-9.12,11-17.12,19.2-20.16v-.16c-10.72-.8-17.6-4-17.6-10.4,0-8.16,9.92-14.88,18.88-16.32V80.8c-8.16-2.56-15.2-10.4-15.2-20.32,0-13.92,11.68-24.16,25.92-24.16a27,27,0,0,1,16.32,5.44l18.08-3.2-1,5.6-14.88-.64-.16.32c4,3.68,7.36,9.28,7.36,15.36,0,13.6-11.84,23.52-26.56,23.52a40,40,0,0,1-8.32-1.12c-6.56,1.28-11.68,5.44-11.68,9.92,0,5.28,3.68,7.36,13.6,7.36,4.16,0,12.32-.48,18.08-.48,14.4,0,23.52,6.56,23.52,16.8,0,17.28-16.64,30.56-39.68,30.56C1148.63,145.76,1138.07,139,1138.07,128Zm60.16-5.92c0-9-6.24-14.4-20.16-14.88a149.25,149.25,0,0,0-18.88,1c-5.44,2.08-14.4,9.28-14.4,18.08,0,9.44,9.92,16.8,25.12,16.8C1184,143,1198.23,134.08,1198.23,122.08Zm-12.64-61.6c0-13.92-6.08-22.88-16.48-22.88-8.8,0-16.32,9-16.32,21.28,0,13.44,7,22.56,16.16,22.56C1177.91,81.44,1185.59,73.12,1185.59,60.48Z"/></g></g></svg>